<svg viewBox="0 0 1667 1667" xmlns="http://www.w3.org/2000/svg">
    <path fill="#2C2C2C" stroke="#2C2C2C" opacity=".925" d="m1080.5 349 16.5 16.5v1l7 8 8 13q-1 1.5-2-1l-1-3-9-13-20-21 .5-.5ZM1087.5 433l38 19 1.5 1.5q-.8 1.2-1.5-.5l-37-18q-2.5-1-1-2ZM1164.5 472l38 19 1.5 1.5q-.8 1.2-1.5-.5l-37-18q-2.5-1-1-2ZM197 500l4 .5-2 1 16 15v1l3 3-.5.5-3.5-3.5v-1L202.5 505h-1l-3-3H197v-2ZM1239.5 510l38 19 1.5 1.5q-.8 1.2-1.5-.5l-37-18q-2.5-1-1-2ZM132.5 534l.5.5-3.5 3.5h-1l-12 12-.5-.5 12.5-12.5h1l3-3ZM194.5 535l10.5 10.5 5 7-.5.5-2.5-2.5-3-5-10-10 .5-.5ZM1316.5 549l38 19 1.5 1.5q-.8 1.2-1.5-.5l-37-18q-2.5-1-1-2ZM1393.5 588l15 8h1.5q1.3 3-2.5 2v-2l-13-6q-2.5-1-1-2ZM1506.5 607l11.5 6.5q-.8 1.2-1.5-.5l-9-4q-2.5-1-1-2ZM1581.5 705l.5 1.5-4 8-3.5 4.5q-1.3-.8.5-1.5l6.5-12.5ZM1537.5 751l.5.5v194l-4.5 5.5-.5-.5 2-2 2-3v-194l.5-.5ZM604.5 839l9.5 13.5-.5.5-2.5-2.5-6-9-1-2 .5-.5ZM645.5 845l8 4 5.5 4.5q-.8 1.2-1.5-.5h-1l-3-3-7-3q-2.5-1-1-2ZM1530.5 955l.5.5-2 2-4 7-2.5 2.5-.5-.5 2-2 4-7 2.5-2.5ZM1510.5 984l.5.5-2 2-4 7-2.5 2.5-.5-.5 2-2 4-7 2.5-2.5ZM1499.5 1000l.5.5-2 2v1l-8.5 8.5-2 1q-1.5-1 1-2h1l7.5-7.5 2.5-3.5ZM1319.5 1043l.5.5-7.5 7.5-8 4v-1q9.7-3.3 15-11ZM964.5 1121l.5.5-8.5 8.5-2 1q-1.5-1 1-2h1l8-8Z"/>
    <path fill="#040607" stroke="#040607" opacity=".988" d="M1050.5 322q2.5-.5 3 1h4q.5-1.5 3-1v1l-2.5.5 3.5.5 1 1h3l2-1v1l-1.5.5 2.5.5 2-1v1l-1.5.5 2.5.5q.8-1.8 1.5-.5-1.8.8-.5 1.5l3-1v1l-1.5.5 2.5 1.5h2q.7-1.7 1.5-.5-2.2 1.3.5 2.5l1.5-.5q-1.8-.7-.5-1.5l1.5 1.5q-1.7.7-.5 1.5l2-1v2l2-1 1.5 1.5q-2.2 1.3.5 2.5l1.5-.5q-1.7-.7-.5-1.5l3.5 3.5q-2.2 1.3.5 2.5l2-1 8.5 8.5-1 1 2.5 3.5 1-1 4.5 4.5h-2l1.5 2.5 1-1 2.5 2.5-1 2 1.5 1.5q1.3-2.2 2.5.5l-1 2q.7 1.2 1.5-.5l1.5 1.5-1 2q.7 1.2 1.5-.5l1.5 1.5-1 2q.7 1.2 1.5-.5l1.5 1.5-1 2q.7 1.2 1.5-.5l1.5 1.5 1 2-1 2h2l-1 2h2l-1 2q.7 1.2 1.5-.5l1.5 1.5 1 3-1 2h2l-1 2h2l-1 2h2q-1.5.5-1 3h1l.5-1.5.5 1.5-1 2h2q-1.5.5-1 3h2q-1.5.5-1 3h1l.5-1.5.5 1.5q-1.7.8-1 4l1 1v5l1 1h-2l1 2q-1.7.8-1 4h2q-1.7.8-.5 1.5l2-1v2l2-1v2l2-1v2l2-1v2l2-1v2l2-1v2l2-1v2l2-1v2l2-1v2l2-1v2l2-1v2l2-1v2l2-1v2l2-1v2l2-1v2l2-1v2l2-1v2l2-1v2l2-1v2l2-1v2l2-1q1.2.7-.5 1.5l1.5 1.5 1.5-.5q-1.7-.7-.5-1.5l18 9 1.5 1.5q-1.7.8-.5 1.5l2-1v2l2-1v2l2-1v2l2-1v2l2-1v2l2-1v2l2-1v2l2-1v2l2-1v2l2-1v2l2-1v2l2-1v2l2-1v2l2-1v2l2-1v2l2-1v2l2-1v2l2-1v2l2-1v2l2-1v2l2-1v2l2-1v2l2-1v2l2-1v2l2-1v2l2-1v2l2-1v2l2-1q1.2.7-.5 1.5l1.5 1.5 1.5-.5q-1.7-.8-.5-1.5l16 8 1.5 1.5q-1.7.8-.5 1.5l2-1v2l2-1v2l2-1v2l2-1v2l2-1v2l2-1v2l2-1v2l2-1v2l2-1v2l2-1v2l2-1v2l2-1v2l2-1v2l2-1v2l2-1v2l2-1v2l2-1v2l2-1v2l2-1v2l2-1v2l2-1v2l2-1v2l2-1v2l2-1v2l2-1v2l2-1v2l2-1v2l2-1v2l2-1 18 9 1.5 1.5q-1.7.7-.5 1.5l2-1v2l2-1v2l2-1v2l2-1v2l2-1v2l2-1v2l2-1v2l2-1v2l2-1v2l2-1v2l2-1v2l2-1v2l2-1v2l2-1v2l2-1v2l2-1v2l2-1v2l2-1v2l2-1v2l2-1v2l2-1v2l2-1v2l2-1v2l2-1v2l2-1v2l2-1v2l2-1v2l2-1q1.2.7-.5 1.5l1.5 1.5 1.5-.5q-1.7-.7-.5-1.5l18 9 1.5 1.5q-1.7.8-.5 1.5l2-1v2l2-1v2l2-1v2l2-1v2l2-1v2l2-1v2l2-1v2l2-1v2l2-1v2l2-1v2l2-1v2l2-1v2l2-1v2l2-1v2l2-1v2l2-1q1 2 5 1l1-1 3.5-.5-2-1 1.5-.5q1 2 5 1v-1l-2.5-.5 2.5-.5q1 2 5 1l1-1 3.5-.5-2-1 1.5-.5 1 1h7l4 2q.8-1.7 1.5-.5-1.8.7-.5 1.5l2-1v2l2-1v2l2-1v2l2-1q1.2.7-.5 1.5l1.5 1.5 5 2q.8-1.7 1.5-.5-1.8.8-.5 1.5l2-1v2l2-1v2l2-1v2l2-1v2l2-1q1.2.7-.5 1.5l1.5 1.5 5 2q.7-1.7 1.5-.5-1.7.8-.5 1.5l2-1v2l2-1v2l2-1v2l2-1q1.2.7-.5 1.5l1.5 1.5 5 2q.8-1.8 1.5-.5-1.7.8-.5 1.5l2-1v2l2-1v2l2-1v2l2-1q1.2.7-.5 1.5l1.5 1.5 5 2q.8-1.7 1.5-.5-1.7.8-.5 1.5l2-1v2l2-1v2l2-1v2l2-1v2l2-1q1.2.7-.5 1.5l1.5 1.5 2-1q1.2.7-.5 1.5l1.5 1.5 2-1 8.5 8.5-.5.5q-.7-1.7-1.5-.5l1.5 2.5q1.3-2.2 2.5.5l-1 2q.7 1.2 1.5-.5l1.5 1.5-1 2q.7 1.2 1.5-.5l1.5 1.5 1 2h-2l1.5 3.5 1-2 .5 1.5-1 2h2l-1 2h2q-1.5.5-1 3h2q-1.5.5-1 3h2q-1.7.8-1 4h1l.5-1.5.5 1.5q-1.7.8-1 4h1l.5-1.5.5 1.5q-2 1-1 5h1l.5-2.5.5 2.5-1 1v5l1 1v20q-2 1-1 5l1 2h-1l-.5-1.5-1.5 3.5v2l1 2h-1l-.5-1.5-.5 2.5 1 2h-1l-.5-1.5-.5 2.5 1 2h-1l-.5-1.5-.5 2.5q1.7.8.5 1.5-.8-1.8-1.5-.5l1 3h-1l-.5-1.5-.5 2.5q1.8.8.5 1.5-.7-1.7-1.5-.5l1 2q-.8 1.2-1.5-.5l-1.5 1.5.5 1.5q.8-1.8 1.5-.5l-1.5 1.5q-.8-1.7-1.5-.5l1 2-1.5 1.5q-1.2-2.2-2.5.5l1 2-3.5 3.5-1-1-2.5 1.5 1 1-2.5 2.5v-2l-3.5 1.5 2 1-1.5.5q-.5-1.5-3-1v1l1.5.5-2 .5v199.5l-1 1v8q-1.5.5-1 3 1.7.7.5 1.5-.7-1.8-1.5-.5l1 2-1.5 1.5q-.8-1.7-1.5-.5l1 2-1.5 1.5q-.7-1.8-1.5-.5l1 2-1.5 1.5q-1.3-2.2-2.5.5l.5 1.5q.8-1.7 1.5-.5l-2.5 2.5q-.7-1.7-1.5-.5l1 2-1.5 1.5q-.8-1.7-1.5-.5l1 2-1.5 1.5q-.7-1.8-1.5-.5l1 2-1.5 1.5q-1.2-2.2-2.5.5l.5 1.5q.8-1.8 1.5-.5l-1.5 1.5q-1.3-2.2-2.5.5l1 2-1.5 1.5q-.8-1.7-1.5-.5l1 2-1.5 1.5q-.7-1.7-1.5-.5l1 2-1.5 1.5q-.8-1.8-1.5-.5l1 2-1.5 1.5q-1.2-2.2-2.5.5l.5 1.5q.8-1.7 1.5-.5l-2.5 2.5q-.8-1.8-1.5-.5l1 2-1.5 1.5q-.7-1.8-1.5-.5l1 2-1.5 1.5q-.8-1.7-1.5-.5l1 2-1.5 1.5q-1.2-2.2-2.5.5l.5 1.5q.8-1.8 1.5-.5l-1.5 1.5q-1.2-2.2-2.5.5l1 2-1.5 1.5q-.7-1.7-1.5-.5l1 2-1.5 1.5q-.8-1.7-1.5-.5l1 2-1.5 1.5q-.7-1.8-1.5-.5l1 2-2.5 2.5q-1.2-2.2-2.5.5l1 2-7.5 7.5-1-1-2.5 1.5 1 1-2.5 2.5v-2l-2.5 1.5q2.3 1.3-.5 2.5v-2l-2.5 1.5q1.8.8.5 1.5l-2-1v2l-2-1v2l-2-1v2q-.5-1.5-3-1l-2.5 1.5q1.8.8.5 1.5-.5-1.5-3-1v1l1.5.5-1.5.5q-.8-1.7-4-1v1l1.5.5-1.5.5-1-1h-5l-1 1h-17l-1-1h-5l-2 1v-1l1.5-.5-3.5-1.5h-2l-1-1h-2l-2 1v-1l1.5-.5-2.5-.5q-.7 1.8-1.5.5 1.7-.7.5-1.5l-2 1v-2l-2 1v-2l-2 1-1.5-1.5q1.7-.8.5-1.5l-2 1v-2l-2 1q-1.3-.8.5-1.5l-1.5-1.5-1.5.5q1.8.8.5 1.5l-1.5-1.5q1.8-.8.5-1.5l-2 1v-2l-2 1-1.5-1.5q1.7-.7.5-1.5l-2 1v-2l-2 1q-1.3-.8.5-1.5l-1.5-1.5-1.5.5q1.7.8.5 1.5l-1.5-1.5q1.7-.8.5-1.5l-2 1v-2l-2 1-3.5-2.5q1.8-.7.5-1.5l-2 1q-1.3-.8.5-1.5l-1.5-1.5-1.5.5q1.7.8.5 1.5l-1.5-1.5q1.8-.8.5-1.5l-2 1v-2l-2 1-3.5-2.5q1.7-.8.5-1.5l-2 1q-1.3-.8.5-1.5l-1.5-1.5-1.5.5q1.8.7.5 1.5l-1.5-1.5q1.8-.8.5-1.5l-2 1v-2l-2 1-3.5-2.5q1.8-.8.5-1.5l-3 1q-1.2-2.2-2.5.5l.5 1.5q.8-1.7 1.5-.5l-2.5 2.5q-.8-1.7-1.5-.5l1 2-1.5 1.5q-.7-1.7-1.5-.5l1 2-1.5 1.5q-1.2-2.2-2.5.5l.5 1.5q.8-1.7 1.5-.5l-2.5 2.5q-.7-1.7-1.5-.5l1 2-1.5 1.5q-.8-1.8-1.5-.5l1 2-1.5 1.5q-.7-1.7-1.5-.5l1 2-1.5 1.5q-1.2-2.2-2.5.5l1 2-1.5 1.5q-.7-1.7-1.5-.5l1 2-1.5 1.5q-.8-1.7-1.5-.5l1 2-1.5 1.5q-1.2-2.2-2.5.5l.5 1.5q.7-1.8 1.5-.5l-2.5 2.5q-.8-1.7-1.5-.5l1 2-1.5 1.5q-.7-1.7-1.5-.5l1 2-1.5 1.5q-.8-1.7-1.5-.5l1 2-1.5 1.5q-1.2-2.2-2.5.5l1 2-1.5 1.5q-.8-1.7-1.5-.5l1 2-2.5 2.5q-1.2-2.2-2.5.5l.5 1.5q.8-1.7 1.5-.5l-7.5 7.5-1-1-2.5 1.5 1 1-2.5 2.5v-2l-2.5 1.5q2.3 1.3-.5 2.5v-2l-2.5 1.5q1.7.7.5 1.5l-2-1v2l-2-1v2l-2-1v2l-2-1v2q-.5-1.5-3-1v1l1.5.5-1.5.5q-.5-1.5-3-1v1l1.5.5-1.5.5q-.5-1.5-3-1v1l1.5.5-1.5.5q-1-2-5-1v1l2.5.5-2.5.5-1-1h-8l-.5-.5.5-.5h7l1-1h4l1-1 5-1 3-2h2l12-7 8.5-7.5v-1l5-5q1.5-4.5 5-7l4-7 3-3 22-33 3.5-3.5h4l2 2 10 5 2 2 10 5 2 2 5 2 2 2 10 5 7 5 12 6h2l7 3h5l1 1h16l1-1h4q.8-1.7 4-1l8-4 4-1 2-2 6-3 10.5-9.5 50-72q-.5-2.5 1-3v-6l-1-1v-202l1.5-1.5h3l5-3 8.5-8.5 7-13v-2l1-1v-2l1-1v-2l3-7q-1-4 1-5v-18l-1-1v-6l-2-4v-3l-1-1v-3l-1-1v-3l-2-3v-2l-8-14-8.5-9.5h-1l-3-3-7-3-2-2-30-15-2-2-30-15-2-2-6-3h-5l-1 1h-4l-1 1q-3.2-.7-4 1h-4l-1 1h-4l-1 1h-9l-8-4-2-2-75-37-2-2-75-37-2-2-75-37-2-2-75-37-2-2q-4.3-.7-6.5-3.5v-4l3-4v-3l-1-1v-3q-1.5-.5-1-3l-4-8v-2l-9-17-15-21-17.5-17.5-7-5-12-6-16-4-1 1q-4-1-5 1h-5l-1 1h-4l-1 1q-4-1-5 1h-5l-1 1h-4l-1 1-9 1-1 1h-5l-1 1h-4l-1 1q-4-1-5 1h-5l-1 1h-4l-1 1q-4-1-5 1h-5l-1 1h-4l-1 1h-4l-1 1q-4-1-5 1h-5l-1 1h-4l-1 1q-4-1-5 1h-5l-1 1h-4l-1 1h-4l-1 1q-4-1-5 1h-5l-1 1h-4l-1 1q-4-1-5 1h-5l-1 1h-4l-1 1h-4l-1 1q-4-1-5 1h-5l-1 1h-4l-1 1q-4-1-5 1h-5l-1 1h-4l-1 1h-4l-1 1q-4-1-5 1h-5l-1 1h-4l-1 1q-4-1-5 1h-5l-1 1h-4l-1 1q-4-1-5 1h-5l-1 1h-4l-1 1h-4l-1 1q-4-1-5 1h-5l-1 1h-4l-1 1q-4-1-5 1h-5l-1 1h-4l-1 1h-4l-1 1q-4-1-5 1h-5l-1 1h-4l-1 1q-4-1-5 1h-5l-1 1h-4l-1 1h-4l-1 1q-4-1-5 1h-5l-1 1h-4l-1 1q-4-1-5 1h-5l-1 1h-4l-1 1h-4l-1 1q-4-1-5 1h-5l-1 1h-4l-1 1q-4-1-5 1h-5l-1 1h-4l-1 1h-4l-1 1q-4-1-5 1h-5l-1 1h-4l-1 1q-4-1-5 1h-5l-1 1h-4l-1 1q-4-1-5 1h-5l-1 1h-4l-1 1h-4l-1 1q-4-1-5 1h-5l-1 1h-4l-1 1q-4-1-5 1h-5l-1 1h-4l-1 1h-4l-1 1q-4-1-5 1h-5l-1 1h-4l-1 1q-4-1-5 1h-5l-1 1h-4l-1 1h-4l-1 1q-4-1-5 1h-5l-1 1h-4l-1 1q-4-1-5 1h-5l-1 1h-4l-1 1h-4l-1 1q-4-1-5 1h-5l-1 1h-4l-1 1q-4-1-5 1h-5l-1 1h-4l-1 1q-4-1-5 1h-5l-1 1h-4l-1 1h-4l-1 1q-4-1-5 1h-5l-1 1h-4l-1 1q-4-1-5 1h-5l-1 1h-4l-1 1h-4l-1 1q-4-1-5 1h-5l-1 1h-4l-1 1q-4-1-5 1h-5l-1 1h-4l-1 1h-4l-1 1q-4-1-5 1h-5l-1 1h-4l-1 1q-4-1-5 1h-5l-1 1h-4l-1 1h-4l-1 1q-4-1-5 1h-5l-1 1h-4l-1 1q-4-1-5 1h-5l-1 1h-4l-1 1q-4-1-5 1h-5l-1 1h-4l-1 1h-4l-1 1q-4-1-5 1h-5l-1 1-9 1-1 1h-5l-1 1h-4l-1 1h-4l-1 1q-4-1-5 1h-5l-1 1h-4l-1 1q-4-1-5 1h-5l-1 1h-4l-1 1h-4l-1 1q-4-1-5 1h-5l-1 1h-4l-1 1q-4-1-5 1h-5l-1 1q-3.2-.7-4 1h-8q-1 2-5 1l-1 1h-3q-.5 1.5-3 1l-12 6-6 4-18.5 17.5v1l-7 8-6 9-1 3-2 2-1 3-2 2-11 23q.5 2.5-1 3v3l-1 1v5l1 1v3l2 4 2.5 2.5h5l1-1h4l1-1h3l1-1q3.3.8 4-1h4l1-1h5.5v4.5l-3 5v2l-3 7v3l-1 1v5l-1 1v19l1 1v5l1 1v3l1 1 2 8 5 10 8 11 5.5 5.5 10 7 12 5q3.3-.7 4 1h17l1-1h3l4-2h5v1h-4l-3.5 1.5 2 1-1.5.5q-.7-1.7-4-1v1l1.5.5-1.5.5-1-1h-19l-2 1v-1l1.5-.5-3.5-.5-2 1v-1l1.5-.5-2.5-.5-2 1v-1l1.5-.5-2.5-.5q-.7 1.7-1.5.5 1.8-.7.5-1.5l-2 1v-2l-2 1v-2l-2 1v-2l-2 1-1.5-1.5q1.8-.7.5-1.5l-2 1-1.5-1.5q2.3-1.2-.5-2.5l-2 1-8.5-8.5 1-1-.5-1.5-1 1-2.5-2.5 1-2q-.8-1.3-1.5.5l-1.5-1.5 1-2q-.8-1.3-1.5.5l-1.5-1.5-1-2h2l-1.5-2.5q-.7 1.7-1.5.5 1.5-.5 1-3h-1l-.5 1.5-.5-1.5 1-2h-2q1.5-.5 1-3h-1l-.5 1.5-.5-1.5q1.5-.5 1-3l-1.5-3.5-1 2-.5-1.5q1.8-.7 1-4h-1l-.5 1.5-.5-1.5 1-1v-5h-1l-.5 2.5-.5-2.5 1-1v-20l1-1v-5q2-1 1-5l-1-2h1l.5 1.5.5-2.5-1-2h1l.5 1.5.5-2.5-1-2h1l.5 1.5.5-2.5q-1.8-.8-.5-1.5.8 1.8 1.5.5l-1-3q1.8-.7.5-1.5l-2-1h-4l-1 1-3.5.5 2 1-1.5.5q-.8-1.7-4-1v1l1.5.5-1.5.5q-1-2-5-1v1l2.5.5-2.5.5-1-1h-7l-2-2q-1.2 2.3-2.5-.5h2l-1.5-3.5-1 2-.5-1.5q2-1 1-5l-1-1v-5l1-1v-4q1.5-.5 1-3l-1-2h1l.5 1.5.5-2.5q-1.7-.7-.5-1.5.7 1.8 1.5.5l-1-2h2l-1-2h2l-1-3h1l.5 1.5 1.5-2.5v-2q-1.7-.8-.5-1.5.7 1.8 1.5.5l-1-2q.7-1.3 1.5.5l1.5-1.5-.5-1.5q-.8 1.8-1.5.5l2.5-3.5q.8 1.8 1.5.5l-1-2h2l-1-2h2l-1-2 1.5-1.5q.8 1.7 1.5.5l-1-2q.7-1.3 1.5.5l1.5-1.5-.5-1.5q-.7 1.8-1.5.5l1.5-1.5q.8 1.7 1.5.5l-1-2 1.5-1.5q.8 1.8 1.5.5l-1-2 1.5-1.5q.8 1.8 1.5.5l-1-2 2.5-2.5q.7 1.8 1.5.5l-1-2 2.5-2.5q1.3 2.3 2.5-.5l-1-2 4.5-4.5 1 1 7.5-7.5-1-1 4.5-4.5 2 1q1.2-.8-.5-1.5l2.5-2.5 2 1q1.2-.8-.5-1.5l1.5-1.5 2 1q1.2-.8-.5-1.5l1.5-1.5v2l2.5-1.5q-1.7-.7-.5-1.5l2 1v-2l2 1v-2q.5 1.5 3 1v-1l-1.5-.5 1.5-.5 2 1v-2q.5 1.5 3 1v-1l-1.5-.5 1.5-.5q.8 1.8 4 1v-1l-1.5-.5 1.5-.5q1 2 5 1v-1l-2.5-.5 2.5-.5 1 1h7v-1l-3.5-.5 3.5-.5q1 2 5 1v-1l-1.5-.5 1.5-.5 1 1h5l1-1 4.5-.5-3-1 2.5-.5q1 2 5 1v-1l-2.5-.5 2.5-.5 1 1h5l1-1 4.5-.5-3-1 2.5-.5q1 2 5 1v-1l-2.5-.5 2.5-.5 1 1h5l1-1h4l1-1 4.5-.5-3-1 2.5-.5q1 2 5 1v-1l-2.5-.5 2.5-.5 1 1h5l1-1 4.5-.5-3-1 2.5-.5q1 2 5 1v-1l-2.5-.5 2.5-.5 1 1h5l1-1 4.5-.5-3-1 2.5-.5q1 2 5 1v-1l-2.5-.5 2.5-.5q1 2 5 1v-1l-2.5-.5 2.5-.5 1 1h5l1-1 4.5-.5-3-1 2.5-.5q1 2 5 1v-1l-2.5-.5 2.5-.5 1 1h5l1-1 4.5-.5-3-1 2.5-.5q1 2 5 1v-1l-2.5-.5 2.5-.5q1 2 5 1v-1l-2.5-.5 2.5-.5 1 1h5l1-1 4.5-.5-3-1 2.5-.5q1 2 5 1v-1l-2.5-.5 2.5-.5 1 1h5l1-1 4.5-.5-3-1 2.5-.5q1 2 5 1v-1l-2.5-.5 2.5-.5q1 2 5 1v-1l-2.5-.5 2.5-.5 1 1h5l1-1 4.5-.5-3-1 2.5-.5q1 2 5 1v-1l-2.5-.5 2.5-.5 1 1h5l1-1 4.5-.5-3-1 2.5-.5q1 2 5 1v-1l-2.5-.5 2.5-.5q1 2 5 1v-1l-1.5-.5 1.5-.5 1 1h5l1-1 4.5-.5-3-1 2.5-.5q1 2 5 1v-1l-2.5-.5 2.5-.5 1 1h5l1-1 4.5-.5-3-1 2.5-.5q1 2 5 1v-1l-2.5-.5 2.5-.5 1 1h5l1-1h4l1-1 4.5-.5-3-1 2.5-.5q1 2 5 1v-1l-2.5-.5 2.5-.5 1 1h5l1-1 4.5-.5-3-1 2.5-.5q1 2 5 1v-1l-2.5-.5 2.5-.5 1 1h5l1-1 4.5-.5-3-1 2.5-.5q1 2 5 1v-1l-2.5-.5 2.5-.5q1 2 5 1v-1l-2.5-.5 2.5-.5 1 1h5l1-1 4.5-.5-3-1 2.5-.5q1 2 5 1v-1l-2.5-.5 2.5-.5 1 1h5l1-1 4.5-.5-3-1 2.5-.5q1 2 5 1v-1l-2.5-.5 2.5-.5q1 2 5 1v-1l-2.5-.5 2.5-.5 1 1h5l1-1 4.5-.5-3-1 2.5-.5q1 2 5 1v-1l-2.5-.5 2.5-.5 1 1h5l1-1 4.5-.5-3-1 2.5-.5q1 2 5 1v-1l-2.5-.5 2.5-.5q1 2 5 1v-1l-1.5-.5 1.5-.5 1 1h5l1-1 4.5-.5-3-1 2.5-.5q1 2 5 1v-1l-2.5-.5 2.5-.5 1 1h5l1-1 4.5-.5-3-1 2.5-.5q1 2 5 1v-1l-2.5-.5 2.5-.5 1 1h5l1-1h4l1-1 4.5-.5-3-1 2.5-.5q1 2 5 1v-1l-2.5-.5 2.5-.5 1 1h5l1-1 4.5-.5-3-1 2.5-.5q1 2 5 1v-1l-2.5-.5 2.5-.5 1 1h5l1-1 4.5-.5-3-1 2.5-.5q1 2 5 1v-1l-2.5-.5 2.5-.5q1 2 5 1v-1l-2.5-.5 2.5-.5 1 1h5l1-1 4.5-.5-3-1 2.5-.5q1 2 5 1v-1l-2.5-.5 2.5-.5 1 1h5l1-1 4.5-.5-3-1 2.5-.5q1 2 5 1v-1l-2.5-.5 2.5-.5q1 2 5 1v-1l-2.5-.5 2.5-.5 1 1h5l1-1 4.5-.5-3-1 2.5-.5q1 2 5 1v-1l-2.5-.5 2.5-.5 1 1h5l1-1 4.5-.5-3-1 2.5-.5q1 2 5 1v-1l-2.5-.5 2.5-.5q1 2 5 1v-1l-1.5-.5 1.5-.5 1 1h5l1-1 4.5-.5-3-1 2.5-.5q1 2 5 1v-1l-2.5-.5 2.5-.5 1 1h5l1-1 4.5-.5-3-1 2.5-.5q1 2 5 1v-1l-2.5-.5 2.5-.5 1 1h5l1-1h4l1-1 4.5-.5-3-1 2.5-.5q1 2 5 1v-1l-2.5-.5 2.5-.5 1 1h5l1-1 4.5-.5-3-1 2.5-.5q1 2 5 1v-1l-2.5-.5 2.5-.5 1 1h5l1-1 4.5-.5-3-1 2.5-.5q1 2 5 1v-1l-2.5-.5 2.5-.5q1 2 5 1v-1l-2.5-.5 2.5-.5 1 1h5l1-1 4.5-.5-3-1 2.5-.5q1 2 5 1v-1l-2.5-.5 2.5-.5 1 1h5l1-1 4.5-.5-3-1 2.5-.5q1 2 5 1v-1l-2.5-.5 2.5-.5q1 2 5 1v-1l-2.5-.5 2.5-.5 1 1h5l1-1 4.5-.5-3-1 2.5-.5q1 2 5 1v-1l-2.5-.5 2.5-.5 1 1h5l1-1 4.5-.5-3-1 2.5-.5q1 2 5 1v-1l-2.5-.5 2.5-.5q1 2 5 1v-1l-1.5-.5 1.5-.5 1 1h5l1-1 4.5-.5-3-1 2.5-.5q1 2 5 1v-1l-2.5-.5 2.5-.5 1 1h5l1-1 4.5-.5-3-1 2.5-.5q1 2 5 1v-1l-2.5-.5 2.5-.5 1 1h5l1-1h4l1-1 4.5-.5-3-1 2.5-.5q1 2 5 1v-1l-2.5-.5 2.5-.5 1 1h5l1-1 4.5-.5-3-1 2.5-.5q1 2 5 1v-1l-2.5-.5 2.5-.5 1 1h5l1-1 4.5-.5-3-1 2.5-.5q1 2 5 1v-1l-2.5-.5 2.5-.5q1 2 5 1v-1l-2.5-.5 2.5-.5 1 1h5l1-1 4.5-.5-3-1 2.5-.5q1 2 5 1v-1l-2.5-.5 2.5-.5 1 1h5l1-1 4.5-.5-3-1 2.5-.5q1 2 5 1v-1l-2.5-.5 2.5-.5q1 2 5 1v-1l-2.5-.5 2.5-.5 1 1h5l1-1 4.5-.5-3-1 2.5-.5q1 2 5 1v-1l-2.5-.5 2.5-.5 1 1h5l1-1 4.5-.5-3-1 2.5-.5q1 2 5 1v-1l-2.5-.5 2.5-.5q1 2 5 1v-1l-2.5-.5 2.5-.5 1 1h5l1-1 4.5-.5-3-1 2.5-.5q1 2 5 1v-1l-2.5-.5 2.5-.5 1 1h5l1-1 4.5-.5-2.5-.5v-1ZM1570 745l-1 1v198h1V745Z"/>
    <path fill="#040607" stroke="#040607" opacity=".988" d="m1068.5 340 12 6 14.5 13.5v1l9 10 10 16q-1 1.5-2-1l-1-3-8-12-17.5-19.5h-1l-7-6-9-4v-1ZM1088.5 431l38 19 1.5 1.5q-.8 1.2-1.5-.5l-37-18q-2.5-1-1-2ZM1165.5 470l38 19 1.5 1.5q-.8 1.2-1.5-.5l-37-18q-2.5-1-1-2ZM196.5 502l15.5 14.5 10 14q-1 1.5-2-1l-5-8-11.5-12.5h-1l-5-5H196l.5-2ZM1240.5 508l40 20 1.5 1.5q-.8 1.2-1.5-.5l-39-19q-2.5-1-1-2ZM134.5 530q1.5 1-1 2l-5 3-15.5 15.5-5.5 7.5-.5-.5 2-2 3-5 10.5-11.5h1l5-5 6-4ZM191.5 530l11.5 9.5v1l5 5 4 6q-1 1.5-2-1l-3-5-12.5-12.5-3.5-2.5.5-.5ZM1317.5 547l40 20 1.5 1.5q-.8 1.2-1.5-.5l-39-19q-2.5-1-1-2ZM1394.5 586l16.5 8.5-1.5.5-14-7q-2.5-1-1-2ZM157.5 590h10q.5 1.5 3 1l6 3 7.5 7.5q1.5 5.5 5 9v2l2 4q-1 4 1 5v17l-1 1v4l-1 1-1 5-3 6-9.5 10.5-3 2h-2l-4 2h-11l-9-4-7.5-7.5-4-7v-2l-3-7v-5l-1-1v-13l1-1v-5l1-1v-2l1-1v-2l1-1 1-4 4-6 5.5-5.5 7-4q3.3.8 4-1Zm-1.5 2q-2 1 0 2-1 1-1-1l-3 1 2 1-2 1q-2-1 0-1l-1-1q-3 1-1 3l-1 1-2-1-4 4v1h2l-2 2-1-1-2 3h2l-1 1q-1-2-2 0l1 2h-2l1 2h-2l1 2v1l-1-1h-1q0 2 1 3v1l-1-2-2 4v5l1 1v11l-1 1 1 5v-2h1q1 2-1 3l1 2v-1h1l-1 2 1 2v-1h1l-1 3h2l-1 2h2l-1 2h2l-1 2q1 1 2-1l2 3-1 2q1 2 3 0 1 1-1 2l2 1 2-1 2 3q-2 0 0 1l2-1v2l2-1 1 1h-1v1q2 1 3-1l3 1h-3v1h9l-3-1v-1q3-1 4 1h2l-1-1v-1l3 1v-2l2 1q1-1-1-1l2-2 2 1q1-1-1-1l5-5q0 2 1 1l-1-2q1-3 3-1l1-2h-2l2-2q0 2 1 1l-1-2h2l-1-2 1-2v2h1q1-3-1-3l1-2v2h1q1-3-1-3l1-2v2h1q1-5-1-5l1-5v5h1v-16l-1 5h-1q-1-5 1-5v-5l-1 3h-1q0-3 1-3v-3l-1 2h-1l1-3h-2l1-2h-2l1-2q-1-2-1 0l-2-1q1-2 2 0v-1l-1-2q-1 2-2 1l1-2h-2l1-2q-1-3-2-1l-3-2q2-2 0-3l-2 1-2-1q2-1 1-2l-2 1v-2l-2 1h-2l2-1v-1q-4-1-4 1h-7q-1-1-3-1ZM245.5 605l.5 2.5 1.5 1.5 9 4 1.5 1.5q-.8 1.2-1.5-.5l-9-4-2.5-2.5.5-2.5ZM1507.5 605l12 6 1.5 1.5q-.8 1.2-1.5-.5l-11-5q-2.5-1-1-2ZM1541.5 623l4 3 3 1 14 11h1.5l-.5 2-8-7q-4.5-1.5-7-5l-6-3q-2.5-1-1-2ZM221 629h4.5l8 4 2 2 15 7 2 2q4.3.7 6.5 3.5.8 3.8-1.5 4.5h-4l-1 1h-4l-1 1h-4l-1 1h-4l-1 1h-4l-1 1h-4l-1 1q-4-1-5 1H216v-4.5l2-4q-.8-3.2 1-4v-4l1-1v-10l1-2.5Zm2 2q-2 2 0 3v5l-1-6-1 1v8l-1 1v5l1 1v1l-1-1h-1q-1 3 1 4v1l-1-2-1 3 2 1q2 0 3 1h4l-2-1v-1q2 0 3 1h4l-2-1v-1q2 0 3 1h4l-2-1v-1q2 0 3 1h4l-2-1v-1q2 0 3 1h4l-2-1v-1q2 0 3 1h4l-1-1v-1l2 1h3q1-1-1-1 1-3-1-2l-2-1q2-1 1-2l-2 1v-2l-2 1v-2l-2 1v-2l-2 1v-2l-2 1-4-2-2-1q2-1 1-2l-2 1v-2l-2 1v-2l-2 1v-2l-2 1v-2l-2 1q-2-1 0-1l-2-2v2l-3-2ZM297.5 672h9l4 2 2 2 13 6 2 2 13 6 2 2 13 6 2 2 13 6 2 2 13 6 2 2 13 6 2 2 13 6 2 2 13 6 2 2 13 6 2 2 13 6 2 2 13 6 2 2 13 6 2 2 13 6 2 2 15 7 2 2 13 6 2 2 13 6 2 2 13 6 2 2 5.5 2 1 2.5v3l1 1v2l3 7v2l2 3v2l10 20 22 32 10 19v2l6 12 7.5 9.5h1l3 3h2.5v207.5l3 7 2.5 2.5 12 6 7 5 5 2 2 2 5 2 2 2 5 2 7 5 5 2 2 2 5 2 2 2 5 2 7 5 5 2 2 2 8 4h2l7 3h4l1 1h7l.5.5-.5.5h-8q-1-2-5-1l-2 1v-1l1.5-.5-3.5-1.5h-2l-1-1h-2q-.8 1.8-1.5.5 1.7-.8.5-1.5l-3 1-3.5-2.5q1.8-.8.5-1.5l-2 1v-2l-2 1q-1.3-.8.5-1.5l-1.5-1.5-1.5.5q1.8.7.5 1.5l-1.5-1.5q1.7-.7.5-1.5l-2 1v-2l-2 1q-1.3-.8.5-1.5l-1.5-1.5-1.5.5q1.7.8.5 1.5l-1.5-1.5q1.8-.8.5-1.5l-2 1v-2l-2 1-3.5-2.5q1.7-.7.5-1.5l-2 1v-2l-2 1-1.5-1.5q1.7-.8.5-1.5l-2 1v-2l-2 1q-1.3-.8.5-1.5l-1.5-1.5-1.5.5q1.8.8.5 1.5l-1.5-1.5q1.8-.8.5-1.5l-2 1v-2l-2 1q-1.3-.8.5-1.5l-1.5-1.5-1.5.5q1.7.7.5 1.5l-1.5-1.5q1.7-.7.5-1.5l-2 1v-2l-2 1-3.5-2.5q1.8-.8.5-1.5l-2 1v-2l-2 1-1.5-1.5q1.7-.7.5-1.5l-2 1v-2l-2 1q-1.3-.8.5-1.5l-1.5-1.5-1.5.5q1.7.8.5 1.5l-1.5-1.5q1.8-.7.5-1.5l-2 1v-2l-2 1q-1.3-.8.5-1.5l-1.5-1.5-1.5.5q1.8.8.5 1.5l-1.5-1.5q1.7-.7.5-1.5l-2 1v-2l-2 1v-2l-2 1q-1.3-.8.5-1.5l-1.5-1.5-1.5.5q1.8.8.5 1.5l-3.5-2.5q1.8-.8.5-1.5l-2 1-3.5-3.5 1-1-3-7v-206l-.5-.5q-.7 1.8-1.5.5 1.8-.8.5-1.5l-2 1q-1.3-.8.5-1.5l-1.5-1.5-2 1-5.5-5.5 1-1-.5-1.5q-1.2 2.3-2.5-.5l1-2q-.8-1.3-1.5.5l-1.5-1.5-1-2h2l-1.5-2.5q-.8 1.8-1.5.5 1.5-.5 1-3h-1l-.5 1.5-1.5-3.5 1-2h-2l1-2h-2l1-2h-2l1-2h-2l1-2h-2l1-2h-2l1-2h-2l1-2h-2l1-2h-2l1-2q-.7-1.3-1.5.5l-1.5-1.5 1-2h-2l1-2q-.8-1.3-1.5.5l-1.5-1.5 1-2q-.8-1.3-1.5.5l-1.5-1.5h2l-1.5-2.5q-1.2 2.3-2.5-.5h2l-1.5-2.5q-1.2 2.3-2.5-.5l1-2q-.8-1.3-1.5.5l-1.5-1.5 1-2q-.8-1.3-1.5.5l-2.5-2.5h2l-1.5-2.5q-1.2 2.2-2.5-.5l1-2q-.7-1.3-1.5.5l-1.5-1.5h2l-1.5-2.5q-.7 1.7-1.5.5l1-2q-.8-1.3-1.5.5l-1.5-1.5 1-2h-2l1-2q-.8-1.3-1.5.5l-1.5-1.5h2l-1.5-2.5q-.7 1.7-1.5.5l1-2h-2l1-2h-2l1-2h-2l1-2h-2l1-2h-2q1.5-.5 1-3h-1l-.5 1.5-.5-1.5 1-2h-2l1-2h-2q1.5-.5 1-3h-1l-.5 1.5-.5-1.5q1.5-.5 1-3l-1-1v-2l-1-1v-2l-1.5-3.5-1 2-.5-1.5q1.5-.5 1-3h-2l1-2q-.8-1.3-1.5.5l-1-1-2.5-1.5q1.8-.8.5-1.5l-2 1v-2l-2 1v-2l-2 1v-2l-2 1v-2l-2 1-5.5-3.5q1.8-.8.5-1.5l-2 1v-2l-2 1v-2l-2 1v-2l-2 1v-2l-2 1-5.5-3.5q1.7-.7.5-1.5l-2 1v-2l-2 1v-2l-2 1v-2l-2 1v-2l-2 1-5.5-3.5q1.8-.7.5-1.5l-2 1v-2l-2 1v-2l-2 1v-2l-2 1v-2l-2 1q-1.3-.8.5-1.5l-1.5-1.5-1.5.5q1.7.8.5 1.5l-3.5-2.5q1.7-.7.5-1.5l-2 1v-2l-2 1v-2l-2 1v-2l-2 1v-2l-2 1q-1.3-.8.5-1.5l-1.5-1.5-1.5.5q1.8.8.5 1.5l-3.5-2.5q1.7-.8.5-1.5l-2 1v-2l-2 1v-2l-2 1v-2l-2 1v-2l-2 1q-1.3-.8.5-1.5l-1.5-1.5-1.5.5q1.7.7.5 1.5l-3.5-2.5q1.8-.7.5-1.5l-2 1v-2l-2 1v-2l-2 1v-2l-2 1v-2l-2 1q-1.3-.8.5-1.5l-1.5-1.5-1.5.5q1.7.8.5 1.5l-3.5-2.5q1.7-.7.5-1.5l-2 1v-2l-2 1v-2l-2 1v-2l-2 1v-2l-2 1q-1.3-.8.5-1.5l-1.5-1.5-1.5.5q1.8.7.5 1.5l-3.5-2.5q1.7-.7.5-1.5l-2 1v-2l-2 1v-2l-2 1v-2l-2 1v-2l-2 1q-1.3-.8.5-1.5l-1.5-1.5-1.5.5q1.7.8.5 1.5l-3.5-2.5q1.7-.8.5-1.5l-2 1v-2l-2 1v-2l-2 1v-2l-2 1v-2l-2 1q-1.3-.8.5-1.5l-1.5-1.5-1.5.5q1.7.7.5 1.5l-3.5-2.5q1.7-.8.5-1.5l-2 1v-2l-2 1v-2l-2 1v-2l-2 1v-2l-2 1q-1.3-.8.5-1.5l-1.5-1.5-1.5.5q1.7.8.5 1.5l-3.5-2.5q1.7-.7.5-1.5l-2 1v-2l-2 1v-2l-2 1v-2l-2 1v-2l-2 1q-1.3-.7.5-1.5l-1.5-1.5-1.5.5q1.8.7.5 1.5l-3.5-2.5q1.7-.7.5-1.5l-2 1v-2l-2 1v-2l-2 1v-2l-2 1v-2l-2 1q-1.3-.8.5-1.5l-1.5-1.5-1.5.5q1.7.8.5 1.5l-3.5-2.5q1.8-.7.5-1.5l-2 1v-2l-2 1v-2l-2 1v-2l-2 1v-2l-2 1q-1.3-.8.5-1.5l-1.5-1.5-1.5.5q1.7.8.5 1.5l-3.5-2.5q1.7-.8.5-1.5l-2 1v-2l-2 1v-2l-2 1v-2l-2 1v-2l-2 1q-1.3-.8.5-1.5l-1.5-1.5-1.5.5q1.8.7.5 1.5l-3.5-2.5q1.7-.7.5-1.5l-2 1v-2l-2 1v-2l-2 1v-2l-2 1v-2l-2 1q-1.3-.8.5-1.5l-1.5-1.5-1.5.5q1.8.8.5 1.5l-3.5-2.5q1.8-.7.5-1.5l-2 1v-2l-2 1v-2l-2 1v-2l-2 1v-2l-2 1q-1.3-.8.5-1.5l-1.5-1.5-1.5.5q1.7.7.5 1.5l-3.5-2.5q1.8-.7.5-1.5l-2 1v-2l-2 1v-2l-2 1v-2l-2 1v-2l-2 1v-2h-6l-.5.5 3 1-2.5.5q-1-2-5-1v1l2.5.5-2.5.5q-1-2-5-1v1l1.5.5-1.5.5q-1-2-5-1v1l1.5.5-1.5.5-1-1h-5l-1 1h-4l-1 1h-4l-1 1-4.5.5 3 1-2.5.5q-1-2-5-1v1l2.5.5-2.5.5q-1-2-5-1v1l2.5.5-2.5.5q-1-2-5-1v1l2.5.5-2.5.5q-1-2-5-1v1l2.5.5-2.5.5q-1-2-5-1v1l2.5.5-2.5.5q-1-2-5-1v1l1.5.5-1.5.5q-1-2-5-1v1l1.5.5-1.5.5-1-1h-5l-1 1h-4l-1 1h-4l-1 1-4.5.5 3 1-2.5.5q-1-2-5-1v1l2.5.5-2.5.5q-1-2-5-1v1l2.5.5-2.5.5q-1-2-5-1v1l2.5.5-2.5.5-1-1-5.5-.5 4.5-.5 1-1h4l1-1h4l1-1h4l1-1h4l1-1h4l1-1h4l1-1h5l1-1h4l1-1 9-1 1-1h4l1-1h4l1-1h4l1-1h4l1-1h4l1-1h4l1-1h4l1-1h5l1-1h4l1-1h4l1-1q4 1 5-1ZM1582.5 708l.5 1.5-6 11-6 7v1.5l-2-.5 7-8 6.5-12.5ZM612.5 797l25.5 15.5q-.8 1.2-1.5-.5l-3-1-2-2-3-1-2-2-13-7q-2.5-1-1-2ZM659.5 825l14.5 8.5-1.5.5-9-6-3-1q-2.5-1-1-2ZM614.5 826l11.5 6.5q-.8 1.2-1.5-.5l-9-4q-2.5-1-1-2ZM602.5 840l11.5 17.5 5 6 1 3 6 9q-1 1.5-2-1l-6-11-15-21-1-2 .5-.5ZM646.5 843l11 6 5.5 5.5 1 2q-1 1.5-2-1v-1l-4.5-4.5-10-5q-2.5-1-1-2ZM662.5 901q1.2.7-.5 1.5v1l-5.5 5.5-3 1v-1q5.4-1.1 7.5-5.5l1.5-2.5Z"/>
    <path fill="#040607" stroke="#040607" opacity=".988" d="m673 934 2 .5-1 1v196l1 2.5 3.5 1 6.5 4.5q-.8 1.2-1.5-.5l-8-4-2.5-2.5V934ZM1539.5 943l.5 2.5-8 13-3 3-6 10-3 3-19 29-7.5 8.5-6 4q-2.5-.5-3 1-1.5-1 1-2h2l3-2 9.5-9.5 8-13 3-3 8-13 3-3 6-10 3-3 6-9 2.5-6.5ZM1371.5 975q1.5 1-1 2h-1l-3.5 3.5-13 20-10 13-6 10-3 3-11 17-5.5 6.5-7 5-3 1v-1l6-3 8.5-8.5 4-7 10-13 6-10 10-13 13-20 4.5-4.5 2-1ZM1386.5 976l10.5 6.5q-.8 1.2-1.5-.5l-8-4q-2.5-1-1-2ZM1398.5 983l10.5 6.5q-.8 1.2-1.5-.5l-8-4q-2.5-1-1-2ZM1205.5 1014l5 2 6.5 4.5q-.8 1.2-1.5-.5l-10-5v-1ZM1192.5 1015l.5.5-5 5-16 24-3 3-6 10-10 13-6 10-10.5 11.5-6 3v-1q8.1-2.9 12.5-9.5l16-24 3-3 6-10 10-13 6-10 8.5-9.5ZM1249.5 1039l10.5 6.5q-.8 1.2-1.5-.5l-8-4q-2.5-1-1-2ZM1261.5 1046l10.5 6.5q-.8 1.2-1.5-.5l-8-4q-2.5-1-1-2Z"/>
    <path fill="#040607" stroke="#040607" opacity=".988" d="m1205.5 1047 19 10 7 5 5 2 2 2 3 1 2 2 5 2 2 2 3 1 2 2 5 2 6 4h2l3 2h2l4 2h4l1 1h7l.5.5-.5.5h-8q-.5 1.5-3 1v-1l2.5-.5-4.5-.5-2 1v-1l1.5-.5-2.5-.5-2 1v-1l1.5-.5-2.5-.5-2 1v-1l1.5-.5-2.5-.5q-.7 1.8-1.5.5 1.7-.8.5-1.5l-2 1v-2l-2 1v-2l-2 1v-2l-2 1q-1.3-.8.5-1.5l-1.5-1.5-1.5.5q1.8.7.5 1.5l-1.5-1.5q1.7-.7.5-1.5l-2 1v-2l-2 1-3.5-2.5q1.7-.8.5-1.5l-2 1v-2l-2 1-1.5-1.5q1.7-.7.5-1.5l-2 1v-2l-2 1q-1.3-.8.5-1.5l-1.5-1.5-1.5.5q1.7.8.5 1.5l-1.5-1.5q1.7-.8.5-1.5l-2 1v-2l-2 1-1.5-1.5q1.8-.7.5-1.5l-2 1v-2l-2 1q-1.3-.8.5-1.5l-1.5-1.5-1.5.5q1.7.7.5 1.5l-1.5-1.5q1.8-.7.5-1.5l-2 1v-2l-2 1-1.5-1.5q1.8-.8.5-1.5l-2 1v-2l-2 1q-1.3-.8.5-1.5l-1.5-1.5-1.5.5q1.8.8.5 1.5l-1.5-1.5q1.7-.7.5-1.5l-2 1v-2l-2 1-3-2-2 2q-.7-1.7-1.5-.5l1 2-1.5 1.5q-1.2-2.2-2.5.5l.5 1.5q.8-1.7 1.5-.5l-2.5 2.5q-.8-1.7-1.5-.5l1 2-1.5 1.5q-.7-1.8-1.5-.5l1 2-1.5 1.5q-1.2-2.2-2.5.5l.5 1.5q.8-1.7 1.5-.5l-1.5 1.5q-1.2-2.2-2.5.5l1 2-1.5 1.5q-.8-1.7-1.5-.5l1 2-1.5 1.5q-.7-1.7-1.5-.5l1 2-1.5 1.5q-1.2-2.2-2.5.5l1 2-1.5 1.5q-.8-1.8-1.5-.5l1 2-1.5 1.5q-.8-1.7-1.5-.5l1 2-1.5 1.5q-1.2-2.2-2.5.5l.5 1.5q.7-1.7 1.5-.5l-2.5 2.5q-.8-1.7-1.5-.5l1 2-1.5 1.5q-.8-1.7-1.5-.5l1 2-1.5 1.5q-.8-1.8-1.5-.5l1 2-1.5 1.5q-1.2-2.2-2.5.5l1 2-3.5 3.5-1-1-5.5 5.5 1 1-3.5 3.5-2-1q-1.3.7.5 1.5l-1.5 1.5-2-1q-1.3.7.5 1.5l-1.5 1.5-2-1v2l-2-1v2l-2-1v2l-2-1v2q-.5-1.5-3-1v1l1.5.5-1.5.5q-.5-1.5-3-1l-3.5 1.5 2 1-1.5.5q-.7-1.7-4-1v1l1.5.5-1.5.5-1-1h-6l-1 1h-12l-1-1h-5q-1-2-5-1l-2 1v-1l1.5-.5-2.5-.5-2 1v-1l1.5-.5-2.5-.5q-.7 1.7-1.5.5 1.8-.7.5-1.5l-3 1v-1l1.5-.5-2.5-1.5h-2q-1 2-2 0l-2.5-1.5q1.8-.8.5-1.5l-2 1v-2l-2 1-1.5-1.5q1.8-.7.5-1.5l-2 1v-2l-2 1q-1.3-.8.5-1.5l-1.5-1.5-1.5.5q1.8.8.5 1.5l-1.5-1.5q1.8-.8.5-1.5l-2 1v-2l-2 1-1.5-1.5q1.8-.7.5-1.5l-2 1v-2l-2 1q-1.3-.8.5-1.5l-1.5-1.5-1.5.5q1.8.7.5 1.5l-1.5-1.5q1.7-.7.5-1.5l-2 1v-2l-2 1-3.5-2.5q1.8-.8.5-1.5l-2 1q-1.3-.8.5-1.5l-1.5-1.5-1.5.5q1.8.8.5 1.5l-1.5-1.5q1.8-.7.5-1.5l-2 1v-2l-2 1-3.5-2.5q1.7-.8.5-1.5l-2 1q-1.3-.8.5-1.5l-1.5-1.5-1.5.5q1.8.8.5 1.5l-1.5-1.5q1.8-.7.5-1.5l-2 1v-2l-2 1v-2l-2.5 1.5 1 1-2.5 2.5q-.8-1.7-1.5-.5l1 2-1.5 1.5q-.8-1.7-1.5-.5l1 2-1.5 1.5q-1.2-2.2-2.5.5l.5 1.5q.7-1.7 1.5-.5l-2.5 2.5q-.7-1.7-1.5-.5l1 2-1.5 1.5q-.8-1.7-1.5-.5l1 2-1.5 1.5q-.8-1.8-1.5-.5l1 2-1.5 1.5q-1.2-2.2-2.5.5l1 2-1.5 1.5q-.7-1.8-1.5-.5l1 2-1.5 1.5q-.8-1.7-1.5-.5l1 2-1.5 1.5q-1.3-2.2-2.5.5l.5 1.5q.8-1.7 1.5-.5l-2.5 2.5q-.7-1.7-1.5-.5l1 2-1.5 1.5q-.7-1.7-1.5-.5l1 2-1.5 1.5q-.8-1.7-1.5-.5l1 2-1.5 1.5q-1.2-2.2-2.5.5l1 2-1.5 1.5q-.7-1.7-1.5-.5l1 2-1.5 1.5q-1.3-2.2-2.5.5l1 2-9.5 9.5-1-1-1.5.5 1 1-2.5 2.5-2-1q-1.3.7.5 1.5l-1.5 1.5v-2l-2.5 1.5q1.8.7.5 1.5l-2-1v2l-2-1v2l-2-1v2q-.5-1.5-3-1l-2.5 1.5q1.7.8.5 1.5-.5-1.5-3-1v1l1.5.5-1.5.5q-.7-1.8-4-1v1l1.5.5-1.5.5-1-1h-5l-1 1h-17l-1-1h-5l-2 1v-1l1.5-.5-3.5-1.5h-3q-.7 1.7-1.5.5 1.7-.8.5-1.5l-3 1v-1l1.5-.5-2.5-.5q-.8 1.7-1.5.5 1.8-.8.5-1.5l-2 1v-2l-2 1v-2l-2 1q-1.3-.8.5-1.5l-1.5-1.5-1.5.5q1.8.8.5 1.5l-1.5-1.5q1.8-.8.5-1.5l-2 1v-2l-2 1-1.5-1.5q1.7-.8.5-1.5l-2 1v-2l-2 1q-1.3-.8.5-1.5l-1.5-1.5-1.5.5q1.8.7.5 1.5l-1.5-1.5q1.8-.7.5-1.5l-2 1v-2l-2 1-1.5-1.5q1.8-.8.5-1.5l-2 1v-2l-2 1q-1.3-.8.5-1.5l-1.5-1.5-1.5.5q1.7.8.5 1.5l-1.5-1.5q1.7-.7.5-1.5l-2 1v-2l-2 1-3.5-2.5q1.7-.8.5-1.5l-2 1q-1.3-.8.5-1.5l-1.5-1.5-1.5.5q1.8.8.5 1.5l-1.5-1.5q1.7-.7.5-1.5l-2 1v-2l-2 1-3.5-2.5q1.8-.7.5-1.5l-2 1v-2l-2 1-4-2-1 1q-.7-1.7-1.5-.5l1 2-1.5 1.5q-1.2-2.2-2.5.5l1 2-1.5 1.5q-.8-1.7-1.5-.5l1 2-1.5 1.5q-.7-1.7-1.5-.5l1 2-1.5 1.5q-1.2-2.2-2.5.5l.5 1.5q.7-1.8 1.5-.5l-2.5 2.5q-.7-1.7-1.5-.5l1 2-1.5 1.5q-.8-1.7-1.5-.5l1 2-1.5 1.5q-.7-1.7-1.5-.5l1 2-1.5 1.5q-1.2-2.2-2.5.5l1 2-1.5 1.5q-.7-1.7-1.5-.5l1 2-1.5 1.5q-.8-1.8-1.5-.5l1 2-1.5 1.5q-1.2-2.3-2.5.5l.5 1.5q.8-1.8 1.5-.5l-2.5 2.5q-.8-1.7-1.5-.5l1 2-1.5 1.5q-.7-1.7-1.5-.5l1 2-1.5 1.5q-1.3-2.2-2.5.5l.5 1.5q.8-1.7 1.5-.5l-1.5 1.5q-1.2-2.3-2.5.5l1 2-2.5 2.5-1-1-2.5 2.5.5 1.5q.8-1.7 1.5-.5l-3.5 3.5-1-1-3.5 2.5 1 1-2.5 2.5-2-1q-1.3.8.5 1.5l-1.5 1.5-2-1q-1.3.7.5 1.5l-1.5 1.5-2-1v2l-2-1v2l-2-1v2q-.5-1.5-3-1l-2.5 1.5 2 1-1.5.5q-.5-1.5-3-1v1l1.5.5-1.5.5q-.8-1.7-4-1l-1 1-3.5.5 3 1-2.5.5-1-1h-9q-.5 1.5-3 1v-1q2.5.5 3-1h8l1-1 7-1 8-4h2l2-2 3-1 6-4 11.5-11.5 16-24 3-3 4-7 3-3 6-10 3-3 2-3v-1.5h4.5l6 3 2 2 10 5 2 2 10 5 2 2 5 2 7 5 5 2 9 6h2l5 3h3l1 1q2.5-.5 3 1h4l1 1h17l1-1h4q.8-1.7 4-1l8-4 4-1 2-2 6-3 10.5-9.5v-1l9-11 4-7 3-3 6-10 3-3 4-7 3-3 6-10 2.5-2.5h5l2 2 5 2 7 5 5 2 2 2 5 2 2 2 10 5 7 5 17 9h2l4 2h3l1 1h6l1 1h11l1-1h5q.8-1.7 4-1l1-1 5-1 3-2h2l4-2 9-6 10.5-10.5 16-24 3-3 4-7 3-3 4-7 3-3 4-6v-1.5q2.6.8 3.5-1Z"/>
    <path fill="#040607" stroke="#040607" opacity=".988" d="M1015.5 1054q1.5 1-1 2l-2.5 1.5-14 21-3 3-4 7-3 3-6 10-3 3-4 7-3 3-4 7-7.5 8.5-7 4v-1l4-2 6.5-5.5 14-21 3-3 6-10 3-3 4-7 3-3 4-7 3-3 4-7 5.5-6.5 2-1ZM1038.5 1059l10.5 6.5q-.8 1.2-1.5-.5l-8-4q-2.5-1-1-2ZM837.5 1093l1.5.5-6 5-16 24-3 3-6 10-3 3-4 7-10 13-2 4-8.5 8.5-2 1q-1.5-1 1-2h1l7.5-7.5 16-24 3-3 6-10 10-13 6-10 8.5-9.5ZM858.5 1097l10.5 6.5q-.8 1.3-1.5-.5l-8-4q-2.5-1-1-2ZM870.5 1104l10.5 6.5q-.8 1.2-1.5-.5l-8-4q-2.5-1-1-2Z"/>
    <path fill="#050708" stroke="#050708" d="m1053.5 322 9 1 1 1 8 2 3 2h2l4 2 13 9 12.5 12.5v1l9 10 8 12 1 3 2 2 10 21v2l3 7v6l-2.5 3.5q-1.3-.8.5-1.5 1.8-2.2 1-7l-1-1v-3l-1-1-1-5-2-3v-2l-11-21-13-18-14.5-15.5h-1l-8-7q-4.7-.8-7-4h-2l-5-3h-2l-4-2h-3l-1-1q-3.2.8-4-1h-4l-1 1q-4-1-5 1h-5l-1 1h-4l-1 1q-4-1-5 1h-5l-1 1h-4l-1 1h-4l-1 1q-4-1-5 1h-5l-1 1h-4l-1 1q-4-1-5 1h-5l-1 1h-4l-1 1h-4l-1 1-4.5.5 5.5.5 1-1h4l1-1q4 1 5-1h5l1-1h4l1-1q4 1 5-1h5l1-1h4l1-1 9-1 1-1h5l1-1h4l1-1h4l1-1h5l1-1h4q.5-1.5 3-1l1 1h3l1 1h3l1 1 5 1 12 6 7 5 17.5 17.5v1l7 8 8 12 2 5 2 2 5 10v2l2 3v2l2 3q-.5 2.5 1 3v3l1 1v3l-3 4v4q2.2 2.8 6.5 3.5l2 2 75 37 2 2 75 37 2 2 75 37 2 2 75 37 2 2 8 4h9v-1l-4.5-.5 3.5-.5 1-1h4l1-1h4l1-1q3.3.8 4-1h4l1-1h8l4 3 13 6 2 2 15 7 2 2 13 6 2 2 26 13 13.5 12.5 4 6 1 3 2 2v2l3 5v2l2 4v3l1 1q-.7 3.3 1 4v4l1 1v4l1 1v22l-1 1-1 7-2 3-2 8-2 3v2l-2 4-4 6-6.5 6.5h-1l-3 3-5 1v-1h2l4-2 7.5-6.5 7-11v-2l2-3v-2l1-1v-2l1-1v-2l3-7q-1-4 1-5v-20l-1-1-.5-5.5-.5.5v6l1 1v18l-1 1v4l-1 1v2l-1 1v2l-1 1-2 8-5 10-10.5 11.5-5 3h-3l-1.5 1.5v202l1 1v6q-1.5.5-1 3l-8 12-3 3-6 10-3 3-26 39-8.5 9.5h-1l-5 5-10 6h-2l-8 4h-3l-1 1-4.5.5 5.5.5 1-1h3q.5-1.5 3-1l3-2h2l6-3 10-7 7.5-7.5 12-18 3-3 6-10 3-3 8-13 3-3 6-10 7-9 1-4 1-1v-8l-1-1v-198h1v198l1 1v9l-8 13-3 3-8 13-3 3-24 36-13.5 14.5-7 5-10 5h-2l-4 2q-3.2-.7-4 1h-4l-1 1h-19l-1-1h-4l-1-1h-3q-.5-1.5-3-1l-3-2h-2l-6-3-2-2-5-2-7-5-5-2-7-5-5-2-2-2-3-1-2-2-5-2-2-2-8.5-4.5 1.5-.5 58 34h2l1 1h2l7 3h5l1 1h17v-1h-16l-1-1h-5l-1-1-8-2-12-6-2-2-10-5-2-2-10-5-2-2-5-2-2-2-10-5-7-5h-4l-3.5 3.5-6 10-3 3-4 7-3 3-18 27-7.5 8.5h-1l-5 5-12 7h-2l-3 2h-2l-4 2h-4l-1 1h-7l-.5.5.5.5h8l1-1h4l1-1 8-2 8-4 10-7 6.5-6.5 39.5-56.5.5 1.5-10 13-22 33-3 3-3 5-9.5 9.5-7 5-10 5h-2l-7 3h-4l-1 1h-7l-1 1h-6l-1-1h-7q-1-2-5-1l-1-1-8-2-10-5-7-5-12-6-2-2-10-5-2-2-3-1-2-2-5-2-2-2-6.5-3.5 1.5-.5 2 2 5 2 7 5 5 2 7 5 5 2 7 5 5 2 2 2 5 2 2 2 8 4h2l7 3h4l1 1h8v-1h-7q-1-2-5-1l-1-1-5-1-3-2h-2l-6-4-5-2-2-2-3-1-2-2-5-2-7-5-5-2-7-5-19-10q-.9 1.8-3.5 1v1.5l-4 6-3 3-4 7-10 13-13 20-13.5 14.5-13 8h-2l-3 2h-2l-4 2-9.5 1.5.5.5h6l1-1h3l1-1 8-2 8-4 6-4 12.5-12.5 16-24 3-3 6-10 3-3 4-7 5.5-6.5.5.5-2 2-11 17-3 3-4 7-10 13-6 10-9.5 10.5-11 8-13 6h-3l-1 1q-3.2-.7-4 1h-5l-1 1h-14l-1-1h-5q-.7-1.7-4-1l-1-1-5-1-3-2h-2l-4-3-17-9-2-2-5-2-7-5-5-2-7-5-12-6-3.5 3.5-4 7-3 3-6 10-3 3-18 27-11.5 11.5-7 5-10 5h-2l-4 2q-3.2-.7-4 1h-4l-1 1h-19l-1-1h-4l-1-1h-3q-.5-1.5-3-1l-13-6-7-5-5-2-7-5-5-2-2-2-3-1-2-2-5-2-2-2-3-1-2-2-8.5-4.5 1.5-.5 2 2 12 6 2 2 10 5 2 2 10 5 2 2 10 5 2 2 6 3h2l3 2h3l4 2h5v-1h-4l-4-2h-3l-5-3h-2l-2-2-12-6-2-2-17-9-7-5-5-2-7-5-6-3H847v1.5l-2 3-3 3-6 10-10 13-13 20-14.5 15.5-6 4-3 1-2 2h-2l-5 3q-2.5-.5-3 1h-3l-1 1h-3l-1 1h-8l-.5.5.5.5h9l1-1h3l1-1h3q.5-1.5 3-1l3-2h2l6-3 14.5-11.5v-1l5-5q1.5-4.5 5-7l4-7 3-3 4-7 3-3 6-10 3-3q3.3-7.2 8.5-12.5 1.2.7-.5 1.5l-18 27-10 13-6 10-11.5 12.5-10 7-8 4h-2l-7 3h-4l-1 1h-7l-1 1h-6l-1-1h-8l-1-1-7-1-17-8-2-2-5-2-7-5-19-10-7-5-5-2-2-2-5-2-2-2-19-10-5.5-5.5-1-4-1-1V937l-3.5-1-7.5-7.5-3-6-2-2-1-4-11-22-26-39-6-12v-2l-3-5v-2l-2-3v-2l-2-4v-3q-1.5-.5-1-3l-2.5-3.5-26-13-2-2-13-6-2-2-15-7-2-2-13-6-2-2-13-6-2-2-13-6-2-2-13-6-2-2-13-6-2-2-13-6-2-2-13-6-2-2-13-6-2-2-13-6-2-2-13-6-2-2-13-6-2-2-13-6-2-2-13-6-2-2-12-6h-6l-1 1h-4l-1 1h-4l-1 1h-4l-1 1h-4l-1 1h-4l-1 1q-4-1-5 1h-5l-1 1h-4l-1 1h-4l-1 1h-4l-1 1h-4l-1 1h-4l-1 1h-4l-1 1h-4l-1 1h-4l-1 1h-4l-1 1q-4-1-5 1h-5l-1 1h-4l-1 1h-4l-1 1h-4l-1 1q-4-1-5 1h-5l-1 1h-3l-1 1q-3.2-.7-4 1h-7q-.5 1.5-3 1l-1-1h-8q-.7-1.7-4-1l-14-6-6-4-10.5-10.5-8-12-1-4-2-3v-2l-2-3v-3l-1-1q.8-3.2-1-4v-5l-1-1v-21l1-1v-5q1.8-.7 1-4l1-1 2-8 2.5-4.5.5 1.5-2 3v2l-3 7v4h1v-3l1-1 2-8 3-5V592h-5.5l-1 1h-4l-1 1h-3l-1 1q-3.2-.7-4 1h-4l-1 1h-5q-4.4-3.1-5-10l-.5 4.5 2 4 2.5 2.5h7l1-1h4l1-1h3l1-1q3.3.8 4-1h4l1-1q1.5 1-1 2-3.2-.7-4 1h-4l-1 1h-3l-1 1h-4l-1 1h-3q-.5 1.5-3 1l-3.5-2.5-2-3q.5-2.5-1-3v-3l-1-1v-7q2-1 1-5l6-12v-2l11-20 12-17 12.5-13.5h1l5-5 10-7 6-3h2l3-2q2.5.5 3-1h3l1-1q4 1 5-1h7l1-1h4l1-1q4 1 5-1h5l1-1h4l1-1q4 1 5-1h5l1-1h4l1-1h4l1-1q4 1 5-1h5l1-1h4l1-1q4 1 5-1h5l1-1h4l1-1q4 1 5-1h5l1-1 9-1 1-1h4l1-1h5l1-1h4l1-1q4 1 5-1h5l1-1h4l1-1h4l1-1q4 1 5-1h5l1-1h4l1-1q4 1 5-1h5l1-1h4l1-1h4l1-1q4 1 5-1h5l1-1h4l1-1q4 1 5-1h5l1-1h4l1-1h4l1-1q4 1 5-1h5l1-1h4l1-1q4 1 5-1h5l1-1h4l1-1h4l1-1q4 1 5-1h5l1-1h4l1-1q4 1 5-1h5l1-1h4l1-1q4 1 5-1h5l1-1h4l1-1h4l1-1q4 1 5-1h5l1-1h4l1-1q4 1 5-1h5l1-1h4l1-1h4l1-1q4 1 5-1h5l1-1h4l1-1q4 1 5-1h5l1-1h4l1-1h4l1-1q4 1 5-1h5l1-1h4l1-1q4 1 5-1h5l1-1h4l1-1h4l1-1q4 1 5-1h5l1-1h4l1-1q4 1 5-1h5l1-1h4l1-1q4 1 5-1h5l1-1h4l1-1h4l1-1q4 1 5-1h5l1-1h4l1-1q4 1 5-1h5l1-1h4l1-1h4l1-1q4 1 5-1h5l1-1h4l1-1q4 1 5-1h5l1-1h4l1-1h4l1-1q4 1 5-1h5l1-1h4l1-1q4 1 5-1h5l1-1h4l1-1h4l1-1q4 1 5-1h5l1-1h4l1-1q4 1 5-1h5l1-1h4l1-1q4 1 5-1h5l1-1h4l1-1h4l1-1q4 1 5-1h5l1-1h4l1-1q4 1 5-1h5l1-1h4l1-1h4l1-1q4 1 5-1h5l1-1h4l1-1q4 1 5-1h5l1-1h4l1-1h4l1-1q4 1 5-1h5l1-1h4l1-1q4 1 5-1h5l1-1h4l1-1h4l1-1q4 1 5-1h5l1-1h4l1-1q4 1 5-1h5l1-1h4l1-1q4 1 5-1h5l1-1h4l1-1h4l1-1q4 1 5-1h5l1-1h4l1-1q4 1 5-1h5l1-1h4l1-1h4l1-1q4 1 5-1h5l1-1h4l1-1q4 1 5-1h5l1-1 9-1 1-1q4 1 5-1h5l1-1h4l1-1q4 1 5-1h5l1-1Zm1.5 16q-1 2-5 1l-1 1h-5q-2 2-5 1l-1 1h-4l-1 1h-5l-1 1-9 1-1 1h-4l-1 1h-5q-1 2-5 1l-1 1h-4l-1 1h-5q-1 2-5 1l-1 1h-4l-1 1h-4l-1 1h-5q-1 2-5 1l-1 1h-4l-1 1h-5q-2 2-5 1l-1 1h-4l-1 1h-4l-1 1h-5q-2 2-5 1l-1 1h-4l-1 1h-5q-1 2-5 1l-1 1h-4l-1 1h-5q-1 2-5 1l-1 1h-4l-1 1h-4l-1 1h-5q-1 2-5 1l-1 1h-4l-1 1h-5q-2 2-5 1l-1 1h-4l-1 1h-4l-1 1h-5q-2 2-5 1l-1 1h-4l-1 1h-5q-1 2-5 1l-1 1h-4l-1 1h-4l-1 1h-5q-2 2-5 1l-1 1h-4l-1 1h-5q-1 2-5 1l-1 1h-4l-1 1h-4l-1 1h-5q-2 2-5 1l-1 1h-4l-1 1h-5q-1 2-5 1l-1 1h-4l-1 1h-5q-1 2-5 1l-1 1h-4l-1 1h-4l-1 1h-5q-2 2-5 1l-1 1h-4l-1 1h-5q-1 2-5 1l-1 1h-4l-1 1h-4l-1 1h-5q-2 2-5 1l-1 1h-4l-1 1h-5q-1 2-5 1l-1 1h-4l-1 1h-4l-1 1h-5q-1 2-5 1l-1 1h-4l-1 1h-5q-2 2-5 1l-1 1h-4l-1 1h-4l-1 1h-5q-1 2-5 1l-1 1h-4l-1 1h-5q-2 2-5 1l-1 1h-4l-1 1h-5q-1 2-5 1l-1 1h-4l-1 1h-4l-1 1h-5q-1 2-5 1l-1 1h-4l-1 1h-5q-2 2-5 1l-1 1h-4l-1 1h-4l-1 1h-5q-1 2-5 1l-1 1h-4l-1 1h-5q-2 2-5 1l-1 1h-4l-1 1h-4l-1 1h-5q-2 2-5 1l-1 1h-4l-1 1h-5q-1 2-5 1l-1 1h-4l-1 1h-4l-1 1h-5q-2 2-5 1l-1 1h-4l-1 1h-5q-1 2-5 1l-1 1h-4l-1 1h-4l-1 1h-5q-1 2-5 1l-1 1h-4l-1 1h-5q-1 2-5 1l-1 1h-4l-1 1h-5q-2 2-5 1l-1 1h-4l-1 1h-4l-1 1h-5q-1 2-5 1l-1 1h-4l-1 1h-5q-1 2-5 1l-1 1h-4l-1 1h-4l-1 1h-5q-1 2-5 1l-1 1h-4l-1 1h-5q-2 2-5 1l-1 1h-4l-1 1h-4l-1 1h-5q-1 2-5 1l-1 1h-4l-1 1h-5l-1 1h-4q-1 2-5 1l-1 1h-4l-1 1h-5q-2 2-5 1l-1 1h-4l-1 1h-5q-2 2-5 1l-1 1h-4l-1 1h-5q-1 2-5 1l-1 1h-5v2h2l3 3h1l11 12 13 19 6 12v2l3 5v2l2 3 2 8 1 1v2l1 1v2l1 1v3l1 1v3h5l1-1h4l1-1h4l1-1h4l1-1h4l1-1h4l1-1h4l1-1h4l1-1h4l1-1h4l1-1h4l1-1h4l1-1h4l1-1h4l1-1h4l1-1h4l1-1h4l1-1h4l1-1h4l1-1h4l1-1h4l1-1h4l1-1h4l1-1h4l1-1h4l1-1h4l1-1h4l1-1h4l1-1h4l1-1h4l1-1h4l1-1h4l1-1h4l1-1h4l1-1h4l1-1h4l1-1h4l1-1h4l1-1h4l1-1h4l1-1h4l1-1h4l1-1h4l1-1h4l1-1h4l1-1h4l1-1h4l1-1h4l1-1h4l1-1h4l1-1h4l1-1h4l1-1h4l1-1h4l1-1h4l1-1h4l1-1h4l1-1h4l1-1h4l1-1h4l1-1h4l1-1h4l1-1h4l1-1h4l1-1h4l1-1h4l1-1h4l1-1h4l1-1h4l1-1h4l1-1h4l1-1h4l1-1h4l1-1h4l1-1h4l1-1h4l1-1h4l1-1h4l1-1h4l1-1h4l1-1h4l1-1h4l1-1h4l1-1h4l1-1h4l1-1h4l1-1h4l1-1h4l1-1h4l1-1h4l1-1h4l1-1h4l1-1h4l1-1h4l1-1h4l1-1h4l1-1h4l1-1h4l1-1h4l1-1h4l1-1h4l1-1h4l1-1h4l1-1h4l1-1h4l1-1h4l1-1h4l1-1h4l1-1h4l1-1h4l1-1h4l1-1h4l1-1h4l1-1h4l1-1h4l1-1h4l1-1h4l1-1h4l1-1h4l1-1h4l1-1h4l1-1h4l1-1h4l1-1h4l1-1h4l1-1h4l1-1h4l1-1h4l1-1h4l1-1h4l1-1h4l1-1h4l1-1h4l1-1h4l1-1h4l1-1h4l1-1h4l1-1h4l1-1h4l1-1h4l1-1h4l1-1h4l1-1h4l1-1h4l1-1h4l1-1h4l1-1h4l1-1h4l1-1h4l1-1h4l1-1h4l1-1h4l1-1h4l1-1h4l1-1h4l1-1h4l1-1h4l1-1h4l1-1h4l1-1h4l1-1h4l1-1h4l1-1h4l1-1h4l1-1h4l1-1h4l1-1h4l1-1h4l1-1h4l1-1h4l1-1h4l1-1h4l1-1h4l1-1h4l1-1h4l2-1-4-8v-2l-3-6-2-2-2-5-13-18-16-17-6-4-6-3h-2l-3-2-9-2Zm-86 1q-2 2-5 1l-1 1h-4l-1 1h-5q-1 2-5 1l-1 1h-4l-1 1h-4v1h5l1-1h4l1-1q3 1 5-1h5l1-1h4l1-1h4l1-1h4l-5-1Zm-37 7q-2 2-5 1l-1 1h-4l-1 1h-5q-1 2-5 1l-1 1h-4l-1 1h-4v1h5l1-1h4l1-1q3 1 5-1h5l1-1h4l1-1h4l1-1h4l-5-1Zm-37 7q-2 2-5 1l-1 1h-4l-1 1h-5q-2 2-5 1l-1 1h-4l-1 1h-5q-1 2-5 1l-1 1h-4l-1 1h-4l-1 1h-5q-2 2-5 1l-1 1h-4l-1 1h-5q-1 2-5 1l-1 1h-4l-1 1h-4v1h5q1-2 5-1l1-1h4l1-1h5q0-2 5-1l1-1h4l1-1h5q1-2 5-1l1-1h4l1-1h4l1-1h5l1-1h4l1-1q3 1 5-1h5l1-1h4l1-1h4l1-1h4l-5-1Zm-90 17q-2 2-5 1l-1 1h-4l-1 1h-5q-1 2-5 1l-1 1h-4l-1 1h-4v1h5l1-1h4l1-1q3 1 5-1h5l1-1h4l1-1h4l1-1h4l-5-1Zm-37 7q-1 2-5 1l-1 1h-4l-1 1h-5q-2 2-5 1l-1 1h-4l-1 1h-4v1h5l1-1h4l1-1q3 1 5-1h5l1-1h4l1-1h4l1-1h4l-5-1Zm-37 7q-1 2-5 1l-1 1h-4l-1 1h-5q-2 2-5 1l-1 1h-4l-1 1h-5q-1 2-5 1l-1 1h-4l-1 1h-4l-1 1h-5q-1 2-5 1l-1 1h-4l-1 1h-5q-2 2-5 1l-1 1h-4l-1 1h-4l-1 1h-5q-1 2-5 1l-1 1h-4l-1 1h-5q-2 2-5 1l-1 1h-4l-1 1h-4v1h5q0-2 5-1l1-1h4l1-1h5q0-2 5-1l1-1h4l1-1h5q0-2 5-1l1-1h4l1-1h4l1-1h5q1-2 5-1l1-1h4l1-1h5q1-2 5-1l1-1h4l1-1h4l1-1h5l1-1h4l1-1q3 1 5-1h5l1-1h4l1-1h4l1-1h4l-5-1Zm-127 24q-1 2-5 1l-1 1h-4l-1 1h-5q-1 2-5 1l-1 1h-4l-1 1h-4v1h5l1-1h4l1-1q3 1 5-1h5l1-1h4l1-1h4l1-1h4l-5-1Zm-37 7q-2 2-5 1l-1 1h-4l-1 1h-5q-1 2-5 1l-1 1h-4l-1 1h-5q-2 2-5 1l-1 1h-4l-1 1h-4l-1 1h-5q-1 2-5 1l-1 1h-4l-1 1h-5q-1 2-5 1l-1 1h-4l-1 1h-4l-1 1h-5q-2 2-5 1l-1 1h-4l-1 1h-5q-1 2-5 1l-1 1h-4l-1 1h-4v1h5q1-2 5-1l1-1h4l1-1h5q0-2 5-1l1-1h4l1-1h5q1-2 5-1l1-1h4l1-1h4l1-1h5q1-2 5-1l1-1h4l1-1h5q0-2 5-1l1-1h4l1-1h4l1-1h5l1-1h4l1-1q3 1 5-1h5l1-1h4l1-1h4l1-1h4l-5-1Zm515 16-1 1h-4q-1 2-5 1l-1 1h-4l-1 1h-4l-1 1h-4l-1 1h-4l-1 1h-4l-1 1h-4l-1 1h-4l-1 1h-4l-1 1h-4l-1 1-9 1-1 1h-4l-1 1h-4l-1 1h-4l-1 1h-4l-1 1h-4l-1 1h-4l-1 1h-4l-1 1h-4l-1 1h-4l-1 1h-4l-1 1h-4l-1 1h-4l-1 1h-4l-1 1h-4q-1 2-5 1l-1 1h-4l-1 1h-4l-1 1h-4l-1 1h-4l-1 1h-4l-1 1h-4l-1 1h-4l-1 1h-4l-1 1h-4l-1 1h-4l-1 1h-4l-1 1h-4l-1 1h-4l-1 1h-4l-1 1h-4l-1 1h-4l-1 1h-4l-1 1h-4l-1 1h-4l-1 1h-4l-1 1h-4l-1 1h-4l-1 1h-4l-1 1h-4l-1 1h-4l-1 1h-4q-1 2-5 1l-1 1h-4l-1 1h-4l-1 1h-4l-1 1h-4l-1 1h-4l-1 1h-4l-1 1h-4l-1 1h-4l-1 1h-4l-1 1h-4l-1 1h-4l-1 1h-4l-1 1h-4l-1 1h-4l-1 1h-4l-1 1h-4l-1 1h-4l-1 1h-4l-1 1h-4l-1 1h-4l-1 1h-4l-1 1h-4l-1 1h-4l-1 1h-4l-1 1h-4l-1 1-9 1-1 1h-4l-1 1h-4l-1 1h-4l-1 1h-4l-1 1h-4l-1 1h-4l-1 1h-4l-1 1h-4l-1 1h-4l-1 1h-4l-1 1h-4l-1 1h-4l-1 1h-4l-1 1h-4l-1 1h-4l-1 1h-4l-1 1h-5l-1 1-9 1-1 1h-4l-1 1h-4l-1 1h-4l-1 1h-4l-1 1h-4l-1 1h-4l-1 1h-4l-1 1h-4l-1 1h-4l-1 1h-4l-1 1h-4l-1 1h-4l-1 1h-4l-1 1h-4l-1 1-9 1-1 1h-4l-1 1h-4l-1 1h-4l-1 1h-4l-1 1h-4l-1 1h-4l-1 1h-4l-1 1h-4l-1 1h-4l-1 1h-4l-1 1h-4l-1 1h-4l-1 1h-4l-1 1h-4l-1 1h-4l-1 1h-4l-1 1h-4l-1 1h-4l-1 1h-4l-1 1h-4l-1 1h-4l-1 1h-4l-1 1h-4l-1 1h-4l-1 1h-4l-1 1h-4l-1 1h-4l-1 1h-4l-1 1h-4l-1 1h-4l-1 1h-4l-1 1h-4l-1 1h-4l-1 1h-4l-1 1h-4l-1 1h-4l-1 1h-4l-1 1h-4l-1 1h-4l-1 1h-4l-1 1h-4l-1 1h-4l-1 1h-4l-1 1h-4l-1 1h-4l-1 1h-4l-1 1h-4l-1 1-9 1-1 1q-3 0-3 1v8h2l2 2 13 6 2 2 13 6 2 2 13 6 2 2 21 10 9 6 28 14 2 2 13 6 2 2 13 6 2 2 15 7 2 2 13 6 2 2 13 6 2 2 13 6 2 2 13 6 2 2 13 6 2 2 13 6 2 2 13 6 2 2 13 6 2 2 13 6 2 2 13 6 2 2 13 6 4 3h2l4-3h4q0-2 4-1l1-1 9-1q0-2 4-1l1-1 9-1q0-2 4-1l1-1 9-1q0-2 4-1l1-1 9-1q0-2 4-1l1-1 9-1q0-2 4-1l1-1 9-1q0-2 4-1l1-1 9-1q0-2 4-1l1-1 9-1q0-2 4-1l1-1h4l1-1h4q0-2 4-1l1-1 9-1q0-2 4-1l1-1 9-1 1-1h4q0-2 4-1l1-1 9-1q0-2 4-1l1-1 9-1q0-2 4-1l1-1 9-1q0-2 4-1l1-1 9-1q0-2 4-1l1-1 9-1q0-2 4-1l1-1 9-1q0-2 4-1l1-1 9-1q0-2 4-1l1-1 9-1q0-2 4-1l1-1 9-1q0-2 4-1l1-1 9-1q0-2 4-1l1-1 9-1q0-2 4-1l1-1 9-1q0-2 4-1l1-1 9-1q0-2 4-1l1-1 9-1q0-2 4-1l1-1 9-1q0-2 4-1l1-1 9-1q0-2 4-1l1-1 9-1q0-2 4-1l1-1 9-1q0-2 4-1l1-1 9-1q0-2 4-1l1-1 9-1q0-2 4-1l1-1 9-1q0-2 4-1l1-1 9-1q0-2 4-1l1-1 9-1q0-2 4-1l1-1 9-1q0-2 4-1l1-1 9-1q0-2 4-1l1-1 9-1q0-2 4-1l1-1 9-1q0-2 4-1l1-1 9-1q0-2 4-1l1-1 9-1q0-2 4-1l1-1 9-1q0-2 4-1l1-1 9-1q0-2 4-1l1-1 9-1q0-2 4-1l1-1 9-1q0-2 4-1l1-1 9-1q0-2 4-1l1-1 9-1q0-2 4-1l1-1 9-1q0-2 4-1l1-1 9-1q0-2 4-1l1-1 9-1q0-2 4-1l1-1 9-1q0-2 4-1l1-1 9-1 1-1h4q0-2 4-1l1-1 9-1q0-2 4-1l1-1 9-1q0-2 4-1l1-1 9-1q0-2 4-1l1-1 9-1q0-2 4-1l1-1 9-1q0-2 4-1l1-1 9-1q0-2 4-1l1-1h4l1-1h4l1-1h3l1-1h4l-1-2-53-26-2-2-75-37-2-2-73-36-2-2-75-37-2-2-42-21h-2Zm-642 8q-1 2-5 1l-1 1h-4l-1 1h-5q-1 2-5 1l-1 1h-4l-1 1h-4v1h5l1-1h4l1-1q3 1 5-1h5l1-1h4l1-1h4l1-1h4l-5-1Zm-37 7q-2 2-5 1l-1 1h-4l-1 1h-5q-2 2-5 1l-1 1h-4l-1 1h-5q-1 2-5 1l-1 1h-4l-1 1h-4l-1 1h-5q-1 2-5 1l-1 1h-4l-1 1h-5q-1 2-5 1l-1 1h-4l-1 1h-4l-1 1h-5q-1 2-5 1l-1 1h-4l-1 1h-5q-1 2-5 1l-1 1h-4l-1 1h-4v1h5q0-2 5-1l1-1h4l1-1h5q1-2 5-1l1-1h4l1-1h5q1-2 5-1l1-1h4l1-1h4l1-1h5q0-2 5-1l1-1h4l1-1h5q0-2 5-1l1-1h4l1-1h4l1-1h5l1-1h4l1-1q3 1 5-1h5l1-1h4l1-1h4l1-1h4l-5-1Zm-127 24q-1 2-5 1l-1 1h-4l-1 1h-5l-1 1-9 1-1 1h-4v1h5l1-1h4l1-1q3 1 5-1h5l1-1h4l1-1h4l1-1h4l-5-1Zm-37 7q-2 2-5 1l-1 1h-4l-1 1h-5q-2 2-5 1l-1 1h-4l-1 1h-4v1h5l1-1h4l1-1q3 1 5-1h5l1-1h4l1-1h4l1-1h4l-5-1Zm-37 7q-2 2-5 1l-1 1h-4l-1 1h-5q-1 2-5 1l-1 1h-4l-1 1h-5q-2 2-5 1l-1 1h-7l-1 1h-4q-1 2-4 1l-12 5-12 8-17 17v1l-7 8-4 6-1 3-4 5-4 9-2 2-1 4-5 9-1 5-1 1 1 4 1-6 2-3v-2l9-18 2-2 1-3 2-2 1-3 6-9 7-8v-1l19-18 6-4 12-6q2 1 3-1h3l1-1h4l1-1h8q0-2 4-1l1-1h5l1-1h4l1-1q3 1 5-1h5l1-1h4l1-1h4l1-1h4l-5-1Zm-46 40-1 1h-4l-6 3h-2l-14 9-13 13-7 10q-2 0 0 1 3 1 4-1h4q0-2 4-1l1-1h3l1-1h4q0-2 4-1l1-1h4q0-2 4-1l1-1h7l1-1h12l1 1h6l1 1h4q0 2 4 1l4 2h2l7 4h2l13 7h2l9 5h1l-1-2v-2l-4-8-10-15-10-11-7-5-6-3-5-1-1-1h-3l-1-1h-16Zm1331 58q-1 2-4 1v1q3 1 5-1h5l6 3 2 2 30 15 2 2 30 15 2 2 7 3 3 3h1l5 6 7 10 6 13v3l1 1v3l1 1v3q2 0 1 3h1v-4l-1-1v-3l-1-1v-3l-2-4v-2l-6-12-5-7-7-8-6-4-15-7-2-2-13-6-2-2-13-6-2-2-15-7-2-2-12-6h-7Zm-1329 8q-1 2-4 1l-7 4-6 6-4 6-1 4-1 1v2l-1 1v2l-1 1v5l-1 1v13l1 1v5l3 7v2l4 7 8 7 9 4h11l4-2h2l3-2 9-10 3-6 1-5 1-1v-4l1-1v-17q-2-2-1-5l-2-4v-2q-3-4-5-9l-7-8-6-3q-3 1-3-1h-10Zm1326 8-1 1-9 1q-1 2-4 1l-1 1-9 1q-1 2-4 1l-1 1-9 1q-1 2-4 1l-1 1-9 1q-1 2-4 1l-1 1-9 1q-1 2-4 1l-1 1-9 1q-1 2-4 1l-1 1-9 1q-1 2-4 1l-1 1-9 1q-1 2-4 1l-1 1-9 1q-1 2-4 1l-1 1-9 1q-1 2-4 1l-1 1-9 1q-1 2-4 1l-1 1-9 1q-1 2-4 1l-1 1-9 1q-1 2-4 1l-1 1-9 1q-1 2-4 1l-1 1-9 1q-1 2-4 1l-1 1-9 1q-1 2-4 1l-1 1-9 1q-1 2-4 1l-1 1-9 1q-1 2-4 1l-1 1-9 1q-1 2-4 1l-1 1-9 1q-1 2-4 1l-1 1-9 1q-1 2-4 1l-1 1h-4l-1 1h-4q-1 2-4 1l-1 1-9 1-1 1h-4q-1 2-4 1l-1 1-9 1q-1 2-4 1l-1 1-9 1q-1 2-4 1l-1 1-9 1q-1 2-4 1l-1 1-9 1q-1 2-4 1l-1 1-9 1q-1 2-4 1l-1 1-9 1q-1 2-4 1l-1 1-9 1q-1 2-4 1l-1 1-9 1q-1 2-4 1l-1 1-9 1q-1 2-4 1l-1 1-9 1q-1 2-4 1l-1 1-9 1q-1 2-4 1l-1 1-9 1q-1 2-4 1l-1 1-9 1q-1 2-4 1l-1 1-9 1q-1 2-4 1l-1 1-9 1q-1 2-4 1l-1 1-9 1q-1 2-4 1l-1 1-9 1q-1 2-4 1l-1 1-9 1q-1 2-4 1l-1 1-9 1q-1 2-4 1l-1 1-9 1q-1 2-4 1l-1 1-9 1q-1 2-4 1l-1 1-9 1q-1 2-4 1l-1 1-9 1q-1 2-4 1l-1 1-9 1q-1 2-4 1l-1 1-9 1q-1 2-4 1l-1 1-9 1q-1 2-4 1l-1 1-9 1q-1 2-4 1l-1 1-9 1q-1 2-4 1l-1 1-9 1q-1 2-4 1l-1 1-9 1q-1 2-4 1l-1 1-9 1q-1 2-4 1l-1 1-9 1q-1 2-4 1l-1 1-9 1q-1 2-4 1l-1 1-9 1q-1 2-4 1l-1 1-9 1q-1 2-4 1l-1 1-9 1q-1 2-4 1l-1 1-9 1q-1 2-4 1l-1 1-9 1q-1 2-4 1l-1 1h-4l-1 1h-4q-1 2-4 1l-1 1h-4l-1 1-5 1 15 9 5 2 12 8 3 1 2 2 3 1 2 2 3 1 2 2 3 1 2 2 3 1 2 2 3 1 2 2 10 5 2 2h5q1-2 5-1l1-1h4q0-2 4-1l1-1 9-1q0-2 4-1l1-1 9-1q0-2 4-1l1-1 9-1q0-2 4-1l1-1 9-1q0-2 4-1l1-1h4l1-1h4q0-2 4-1l1-1 9-1q0-2 4-1l1-1 9-1q0-2 4-1l1-1h4q0-2 4-1l1-1 9-1q0-2 4-1l1-1 9-1q0-2 4-1l1-1 9-1q0-2 4-1l1-1 9-1q0-2 4-1l1-1 9-1q0-2 4-1l1-1h4l1-1h4q0-2 4-1l1-1 9-1q0-2 4-1l1-1 9-1q0-2 4-1l1-1 9-1q0-2 4-1l1-1h4q0-2 4-1l1-1 9-1q0-2 4-1l1-1 9-1q0-2 4-1l1-1 9-1q0-2 4-1l1-1 9-1q0-2 4-1l1-1h4l1-1h4q0-2 4-1l1-1 9-1q0-2 4-1l1-1 9-1q0-2 4-1l1-1 9-1q0-2 4-1l1-1 9-1q0-2 4-1l1-1h4q0-2 4-1l1-1 9-1q0-2 4-1l1-1 9-1q0-2 4-1l1-1 9-1q0-2 4-1l1-1 9-1q0-2 4-1l1-1 9-1q0-2 4-1l1-1 9-1q0-2 4-1l1-1 9-1q0-2 4-1l1-1 9-1q0-2 4-1l1-1h4l1-1h4q0-2 4-1l1-1h4q0-2 4-1l1-1 9-1q0-2 4-1l1-1 9-1q0-2 4-1l1-1 9-1q0-2 4-1l1-1 9-1q0-2 4-1l1-1 9-1q0-2 4-1l1-1 9-1q0-2 4-1l1-1 9-1q0-2 4-1l1-1 9-1q0-2 4-1l1-1 9-1q0-2 4-1l1-1h4q0-2 4-1l1-1 9-1q0-2 4-1l1-1 9-1q0-2 4-1l1-1 9-1q0-2 4-1l1-1 9-1q0-2 4-1l1-1 9-1q0-2 4-1l1-1 9-1q0-2 4-1l1-1 9-1q0-2 4-1l1-1 9-1q0-2 4-1l1-1h4q0-2 4-1l1-1 9-1q0-2 4-1l1-1 9-1q0-2 4-1l1-1 9-1q0-2 4-1l1-1 9-1q0-2 4-1l1-1 9-1q0-2 4-1l1-1 9-1q0-2 4-1l1-1 9-1 1-1h3l1-1h3l-11-10-9-6-3-1-2-2-19-9-2-2-19-9-2-2-6-3h-6ZM104 620l-1 1v20l1 1v5q2 0 1 4l3 7v2l2 3v2l2 2 2 5 5 7 9 8 7 5 8 4 5 1 1 1h3l1 1h19l1-1h3q0-1 3-1l1-1h4v-1h-5l-4 2h-3l-1 1h-17q-1-2-4-1l-12-5-10-7-10-10-9-16-2-8-1-1v-3l-1-1v-5l-1-1v-20Zm117 9-1 3v10h1v-8l1-2h1l-1 2v9l-1 1v4l-1 1v3q-1 0-1 3h-1q0-3 1-3v-3l1-1v-6l-1 5-1 1v3l-2 4v4h7q0-2 5-1l1-1h4l1-1h4l1-1h4l1-1h4l1-1h4l1-1h4q2-1 1-4-2-3-6-4l-2-2-15-7-2-2-8-4h-5Zm1355 25v2h-4q-1 2-4 1l-1 1h-4q-1 2-4 1l-1 1h-4l-1 1h-4q-1 2-4 1l-1 1h-4l-1 1h-4q-1 2-4 1l-1 1-9 1q-1 2-4 1l-1 1-9 1q-1 2-4 1l-1 1-9 1q-1 2-4 1l-1 1-9 1q-1 2-4 1l-1 1-9 1q-1 2-4 1l-1 1-9 1q-1 2-4 1l-1 1h-4q-1 2-4 1l-1 1-9 1q-1 2-4 1l-1 1h-4l-1 1h-4q-1 2-4 1l-1 1-9 1q-1 2-4 1l-1 1-9 1q-1 2-4 1l-1 1h-4q-1 2-4 1l-1 1-9 1q-1 2-4 1l-1 1h-4l-1 1h-4q-1 2-4 1l-1 1-9 1q-1 2-4 1l-1 1-9 1q-1 2-4 1l-1 1-9 1q-1 2-4 1l-1 1h-4q-1 2-4 1l-1 1-9 1q-1 2-4 1l-1 1-9 1q-1 2-4 1l-1 1h-4l-1 1h-4q-1 2-4 1l-1 1-9 1q-1 2-4 1l-1 1h-4q-1 2-4 1l-1 1q-5-1-5 1h-5l-4 2q-5-1-5 1h-5l-4 2-9 1q-1 2-4 1l-1 1-9 1q-1 2-4 1l-1 1h-4l-1 1h-4q-1 2-4 1l-1 1h-5q-1 2-4 1l-1 1h-3l-1 1h-5q-1 2-4 1l-1 1h-3l-1 1h-5q-1 2-4 1l-1 1h-3l-1 1h-5q-1 2-4 1l-1 1h-3l-1 1h-4q-1 2-4 1l-1 1-9 1q-1 2-4 1l-1 1-9 1q-1 2-4 1l-1 1h-4l-1 1h-4q-1 2-4 1l-1 1-9 1q-1 2-4 1l-1 1-9 1q-1 2-4 1l-1 1-9 1q-1 2-4 1l-1 1-9 1q-1 2-4 1l-1 1h-4q-1 2-4 1l-1 1-9 1q-1 2-4 1l-1 1-9 1q-1 2-4 1l-1 1-9 1q-1 2-4 1l-1 1-9 1q-1 2-4 1l-1 1-9 1q-1 2-4 1l-1 1h-4q-1 2-4 1l-1 1-9 1q-1 2-4 1l-1 1-9 1q-1 2-4 1l-1 1-9 1q-1 2-4 1l-1 1-9 1q-1 2-4 1l-1 1h-4q-1 2-4 1l-1 1-9 1q-1 2-4 1l-1 1-9 1q-1 2-4 1l-1 1-9 1q-1 2-4 1l-1 1-9 1q-1 2-4 1l-1 1-9 1q-1 2-4 1l-1 1h-4q-1 2-4 1l-1 1-9 1q-1 2-4 1l-1 1-9 1q-1 2-4 1l-1 1-9 1q-1 2-4 1l-1 1-9 1q-1 2-4 1l-1 1-9 1-1 1q-4-1-4 1h-4l-1 1h-3q-1 2-4 1l1 3v2l1 1 1 7 1 1q-1 3 1 5v7l1 1v15l-1 1v8l-1 1v4q-2 0-1 4l-1 1v3l-3 6 1 1q0-2 4-1l1-1 9-1q0-2 4-1l1-1 9-1q0-2 4-1l1-1h4l1-1h4q0-2 4-1l1-1h4q0-2 4-1l1-1 9-1q0-2 4-1l1-1 9-1q0-2 4-1l1-1 9-1q0-2 4-1l1-1 9-1q0-2 4-1l1-1h4l1-1h4q0-2 4-1l1-1h4q0-2 4-1l1-1 9-1q0-2 4-1l1-1 9-1q0-2 4-1l1-1 9-1q0-2 4-1l1-1 9-1q0-2 4-1l1-1h4l1-1h4q0-2 4-1l1-1h4q0-2 4-1l1-1 9-1q0-2 4-1l1-1 9-1q0-2 4-1l1-1 9-1q0-2 4-1l1-1h4l1-1h4q0-2 4-1l1-1h4q0-2 4-1l1-1 9-1q0-2 4-1l1-1 9-1q0-2 4-1l1-1 9-1q0-2 4-1l1-1 9-1q0-2 4-1l1-1h4l1-1h4q0-2 4-1l1-1h4q0-2 4-1l1-1 9-1q0-2 4-1l1-1 9-1q0-2 4-1l1-1 9-1q0-2 4-1l1-1h4l1-1h4q0-2 4-1l1-1h4q0-2 4-1l1-1 9-1q0-2 4-1l1-1 9-1q0-2 4-1l1-1 9-1q0-2 4-1l1-1 9-1q0-2 4-1l1-1h4l1-1h4q0-2 4-1l1-1h4q0-2 4-1l1-1 9-1q0-2 4-1l1-1 9-1q0-2 4-1l1-1 9-1q0-2 4-1l1-1h4l1-1h4q0-2 4-1l1-1h4q0-2 4-1l1-1 9-1q0-2 4-1l1-1 9-1q0-2 4-1l1-1 9-1q0-2 4-1l1-1 9-1q0-2 4-1l1-1h4l1-1h4q0-2 4-1l1-1h4q0-2 4-1l1-1 9-1q0-2 4-1l1-1 9-1q0-2 4-1l1-1 9-1q0-2 4-1l1-1 9-1q0-2 4-1l1-1h4l1-1h4q0-2 4-1l1-1h4q0-2 4-1l1-1 9-1q0-2 4-1l1-1 9-1q0-2 4-1l1-1 9-1q0-2 4-1l1-1h4l1-1h4q0-2 4-1l1-1h4q0-2 4-1l1-1 9-1q0-2 4-1l1-1 9-1q0-2 4-1l1-1 9-1q0-2 4-1l1-1 9-1q0-2 4-1l1-1h4l1-1h4q0-2 4-1l1-1h4q0-2 4-1l1-1h4l1-1h4q0-2 4-1l1-1h4l4-4 6-9 4-8 1-5 1-1v-3l1-1v-19l-1-1v-4l-1-1v-3q-1-1-1-3l-5-10 2-1-3-1ZM298 672l-1 1-9 1-1 1h-4l-1 1h-5q-1 2-5 1l-1 1h-4l-1 1h-4l-1 1h-4q-2 2-5 1l-1 1h-4l-1 1h-4l-1 1h-4l-1 1h-4l-1 1h-4l-1 1h-5q-2 2-5 1l-1 1h-4l-1 1h-4l-1 1h-4l-1 1h-4l-1 1h-4l-1 1h-4v1h5q1-2 5-1l1-1h4l1-1h4l1-1h4l1-1h4l1-1h4l1-1h5l1-1 9-1 1-1h4l1-1h4l1-1h4l1-1h4l1-1h4l1-1h4l1-1h4l1-1h4l1-1h5q1-2 5-1l1-1h4l1-1h4l1-1h6l14 7 2 2 13 6 2 2 13 6 2 2 13 6 2 2 13 6 2 2 13 6 2 2 13 6 2 2 13 6 2 2 13 6 2 2 13 6 2 2 13 6 2 2 13 6 2 2 13 6 2 2 13 6 2 2 13 6 2 2 13 6 2 2 26 13 3 5 2 8 1 1v2l1 1v2l1 1v2l3 5v2l5 10 8 12 1 3 10 13 6 11 2 2 11 22v2l2 2 4 8q3 5 10 7l1 2v206l3 7 4 3 21 11 7 5 19 10 7 5 19 10 2 2 10 5 8 2 1 1h4l1 1h8v-1h-7l-1-1h-4l-7-3h-2l-8-4-2-2-5-2-7-5-5-2-2-2-5-2-2-2-5-2-7-5-5-2-2-2-5-2-2-2-5-2-7-5-12-6-3-2-3-7V935h-2l-3-3h-1l-8-9-6-12v-2l-10-19-22-32-10-20v-2l-2-3v-2l-3-7v-2l-1-1v-3l-1-3-5-2-2-2-13-6-2-2-13-6-2-2-13-6-2-2-15-7-2-2-13-6-2-2-13-6-2-2-13-6-2-2-13-6-2-2-13-6-2-2-13-6-2-2-13-6-2-2-13-6-2-2-13-6-2-2-13-6-2-2-13-6-2-2-13-6-2-2-13-6-2-2-4-2h-9Zm1236 79-1 1h-4l-1 1h-4q-1 2-4 1l-1 1-9 1q-1 2-4 1l-1 1-9 1q-1 2-4 1l-1 1h-4q-1 2-4 1l-1 1-9 1q-1 2-4 1l-1 1-9 1q-1 2-4 1l-1 1-9 1q-1 2-4 1l-1 1-9 1q-1 2-4 1l-1 1-9 1q-1 2-4 1l-1 1h-4q-1 2-4 1l-1 1-9 1q-1 2-4 1l-1 1-9 1q-1 2-4 1l-1 1-9 1q-1 2-4 1l-1 1-9 1q-1 2-4 1l-1 1h-4q-1 2-4 1l-1 1-9 1q-1 2-4 1l-1 1-9 1q-1 2-4 1l-1 1-9 1q-1 2-4 1l-1 1-9 1q-1 2-4 1l-1 1h-4l-1 1h-4q-1 2-4 1l-1 1h-4q-1 2-4 1l-1 1-9 1q-1 2-4 1l-1 1-9 1q-1 2-4 1l-1 1-9 1q-1 2-4 1l-1 1h-4l-1 1h-4q-1 2-4 1l-1 1h-4q-1 2-4 1l-1 1-9 1q-1 2-4 1l-1 1-9 1q-1 2-4 1l-1 1-9 1q-1 2-4 1l-1 1-9 1q-1 2-4 1l-1 1h-4l-1 1h-4q-1 2-4 1l-1 1h-4q-1 2-4 1l-1 1-9 1q-1 2-4 1l-1 1-9 1q-1 2-4 1l-1 1-9 1q-1 2-4 1l-1 1-9 1q-1 2-4 1l-1 1h-4l-1 1h-4q-1 2-4 1l-1 1h-4q-1 2-4 1l-1 1-9 1q-1 2-4 1l-1 1-9 1q-1 2-4 1l-1 1-9 1q-1 2-4 1l-1 1h-4l-1 1h-4q-1 2-4 1l-1 1h-4q-1 2-4 1l-1 1-9 1q-1 2-4 1l-1 1-9 1q-1 2-4 1l-1 1-9 1q-1 2-4 1l-1 1-9 1q-1 2-4 1l-1 1h-4l-1 1h-4q-1 2-4 1l-1 1h-4q-1 2-4 1l-1 1-9 1q-1 2-4 1l-1 1-9 1q-1 2-4 1l-1 1-9 1q-1 2-4 1l-1 1h-4l-1 1h-4q-1 2-4 1l-1 1h-4q-1 2-4 1l-1 1-9 1q-1 2-4 1l-1 1-9 1q-1 2-4 1l-1 1-9 1q-1 2-4 1l-1 1-9 1q-1 2-4 1l-1 1h-4l-1 1h-4q-1 2-4 1l-1 1h-4q-1 2-4 1l-1 1-9 1q-1 2-4 1l-1 1-9 1q-1 2-4 1l-1 1-9 1q-1 2-4 1l-1 1h-4l-1 1h-4q-1 2-4 1l-1 1h-4q-1 2-4 1l-1 1h-4l-1 1q-3 0-3 1v195q2 2 7 3l2 2 5 2 2 2 3 1 2 2 5 2 2 2 5 2 2 2 5 2 7 5 19 10 2 2 7 3h3l1 1h12q0-2 4-1l11-6 8-9 20-30 10-13 6-10 8-10v-2h2l2-2 4-1 1-1h7l1 1 4 1 7 5 10 5 2 2 12 6 7 5 10 5 2 2 5 2 7 5 10 5q2 0 3 1h4l1 1h7q1-2 5-1l4-2h2q1-2 5-3l11-12 6-10 10-13 6-10 3-3 16-24q3-5 9-7h10l6 3 7 5 10 5 2 2 12 6 7 5 10 5 2 2 5 2 7 5 8 4q3-1 4 1h15l1-1h2l1-1 4-1 6-4 7-8 18-27 3-3 6-10 10-13 6-10 6-5 2-1h3l1-1h4q0 2 3 1l8 4 7 5 12 6 7 5 5 2 7 5 10 5 2 2 12 6 2 2h2l3 2h3l1 1h12l1-1h3q0-1 3-1l7-4 10-11 6-10 10-13 6-10 3-3 16-24 6-6 4-1 1-1h7l1 1 4 1 2 2 10 5 2 2 5 2 2 2 10 5 2 2 10 5 2 2 5 2 7 5 5 2 2 2 8 4q2 0 3 1h4l1 1h7q1-2 5-1l4-2h2q1-2 5-3l8-8 24-36 3-3 8-13 5-6V752q0-2-4-1Zm-939 68v3l3 5v2l3 6 26 39 4 9 3 4v2l8 16 5 3h7l3-2 4-5 3-6q0-3 1-3v-3l1-1v-8l1-1q1-4-1-4v-8l-4-9-3-3v-1l-5-5-15-7-2-2-13-6-2-2-13-6-2-2-10-5h-2Zm78 115v199q1 2 2 1l-1-2V936l1-1-2-1Zm353 153-3 3-6 10-3 3-4 7-3 3-6 10-3 3-4 7-9 11v1l-10 9-6 3-2 2-4 1-8 4q-4-1-4 1h-4v1h5l1-1h3q0-1 3-1l3-2h2l15-9 9-9 14-21 3-3 4-7 3-3 6-10q4-3 5-7l5-5 7 3 7 5 5 2 7 5 5 2 7 5 10 5 2 2 5 2 2 2h2l5 3 5 1 1 1h4l-9-3-10-5-2-2-10-5-2-2-10-5-2-2-12-6-7-5-5-2-2-2h-5Zm77 39v1h5l1 1h12v-1h-11l-1-1h-6Zm-174 40v1h17v-1h-17Z"/>
    <path fill="#050708" stroke="#050708" d="m1137.5 422 44 22 2 2 75 37 2 2 73 36 2 2 75 37 2 2 49.5 24.5-1.5.5-50-25-2-2-73-36-2-2-75-37-2-2-75-37-2-2-41-20q-2.5-1-1-2ZM158.5 591h7q.8 1.8 4 1l7 4 5.5 5.5 8 16q-1 4 1 5v15l-1 1v4l-1 1-1 5-3 6-8.5 9.5-10 5h-9l-7-3-7.5-6.5v-1l-3-3-6-14v-5l-1-1v-11l1-1v-5l1-1 1-5 4-8 6.5-7.5h1l3-3 4-1 1-1h2l1-1Zm.5 1-4 2h-2l-3 2-10 11-4 9q1 3-1 4v4l-1 1v11l1 1v5l6 14 4 4v1h2l4 4 7 3h9l10-5 4-4 4-6 3-7v-2l1-1v-4l1-1v-15q-2-1-1-5l-4-9-2-2-3-6-6-6-4-2q-4 1-4-1h-7ZM225.5 631l16 8 2 2 11 5 1.5 1.5q-.8 1.2-1.5-.5l-28-14q-2.5-1-1-2ZM252.5 650l3.5.5-3.5.5-1 1h-4l-1 1h-4l-1 1h-4l-1 1h-4l-1 1h-4l-1 1h-4q-.5 1.5-3 1v-1q2.5.5 3-1h4l1-1h4l1-1h4l1-1h4l1-1h4l1-1h4l1-1Z"/>
</svg>
