<svg width="3441" height="1153" xmlns="http://www.w3.org/2000/svg" xml:space="preserve" overflow="hidden">
    <path d="M3175.81 539.81h14.32c11.48 0 17.8 5.24 17.8 14.75 0 12.15-9.66 14.69-17.8 14.69h-14.32v-29.44Zm-19.47-15.6v102.14h20.33v-41.44h8.7c0 .72 25.49 41.04 25.49 41.04l20.89.4h1.52s-27.01-42.3-28.07-43.88c14.11-4.11 22.25-14.13 22.25-27.91 0-19.32-13.2-30.35-36.16-30.35h-34.14Zm32.57-24.51c43.55 0 76.38 32.95 76.38 76.57 0 43.88-32.68 76.98-75.98 76.98-43.79 0-76.82-33.1-76.82-76.98 0-43.62 32.87-76.57 76.42-76.57Zm-.05-17.8c-53.56 0-93.98 40.68-93.98 94.57 0 53.9 40.21 94.53 93.63 94.53 53.86 0 94.48-40.63 94.48-94.53 0-53.89-40.47-94.57-94.13-94.57Zm-634.22-209.171V375.59h52.05l135.6 192.39-137.32 209.33h-63.33v102.91h239.34v-96.66h-56.75l83.87-126.09 86.33 126.09h-56.74v96.66h281.98V777.31h-67.37l-143.04-203.07 132.36-198.65h78.05V272.729h-248.25v96.655h50.99l-75.67 113.586-83.05-113.586h53.51v-96.655Zm-611.76 0V375.59h65.8v317.62c0 148.57 107.13 194.17 223.06 194.17 83.76 0 219.51-30.45 219.51-171.8V375.59h55.49V272.729h-211.32V375.59h49.51V689.6c0 68.95-43.85 94.88-98.22 94.88-64.79 0-92.46-40.27-92.46-100.17V375.59h48.45V272.729Zm-469.49 0V375.59h79.72v401.72h-79.72v102.91h475.25V686.81h-109.35v90.5h-140.61V375.59h81.43V272.729Zm-554.35 0V375.59h60.64v401.72h-65.8v102.91h490.83V687.01h-106.07v90.3h-173.49V618.06h139.8V515.21h-139.8V375.59h173.49v89.49h106.07V272.729Zm-625.222 0V375.59h65.802l166.31 504.78h131l160.49-504.78h53.72V272.729H639.43V375.59h61.71L600.48 683.25h-1.61l-92.92-307.66h64.13V272.729ZM0 0h3441v1153H0Z" fill-rule="evenodd"/>
</svg>
