<svg width="3441" height="1153" xmlns="http://www.w3.org/2000/svg" xmlns:xlink="http://www.w3.org/1999/xlink" xml:space="preserve" overflow="hidden"><g transform="translate(-674 -627)"><path d="M3849.81 1166.81C3851.38 1166.81 3864.13 1166.81 3864.13 1166.81 3875.61 1166.81 3881.93 1172.05 3881.93 1181.56 3881.93 1193.71 3872.27 1196.25 3864.13 1196.25 3864.13 1196.25 3851.38 1196.25 3849.81 1196.25 3849.81 1194.73 3849.81 1168.34 3849.81 1166.81ZM3830.34 1151.21 3830.34 1253.35 3850.67 1253.35C3850.67 1253.35 3850.67 1213.49 3850.67 1211.91 3852.04 1211.91 3859.32 1211.91 3859.37 1211.91 3859.37 1212.63 3884.86 1252.95 3884.86 1252.95L3905.75 1253.35 3907.27 1253.35C3907.27 1253.35 3880.26 1211.05 3879.2 1209.47 3893.31 1205.36 3901.45 1195.34 3901.45 1181.56 3901.45 1162.24 3888.25 1151.21 3865.29 1151.21L3831.15 1151.21ZM3862.91 1126.7C3906.46 1126.7 3939.29 1159.65 3939.29 1203.27 3939.29 1247.15 3906.61 1280.25 3863.31 1280.25 3819.52 1280.25 3786.49 1247.15 3786.49 1203.27 3786.49 1159.65 3819.36 1126.7 3862.91 1126.7ZM3862.86 1108.9C3809.3 1108.9 3768.88 1149.58 3768.88 1203.47 3768.88 1257.37 3809.09 1298 3862.51 1298 3916.37 1298 3956.99 1257.37 3956.99 1203.47 3956.99 1149.58 3916.52 1108.9 3862.86 1108.9ZM3228.64 899.729 3228.64 1002.59 3280.69 1002.59 3416.29 1194.98 3278.97 1404.31 3215.64 1404.31 3215.64 1507.22 3454.98 1507.22 3454.98 1410.56 3398.23 1410.56 3482.1 1284.47 3568.43 1410.56 3511.69 1410.56 3511.69 1507.22 3793.67 1507.22 3793.67 1404.31 3726.3 1404.31 3583.26 1201.24 3715.62 1002.59 3793.67 1002.59 3793.67 899.729 3545.42 899.729 3545.42 996.384 3596.41 996.384 3520.74 1109.97 3437.69 996.384 3491.2 996.384 3491.2 899.729ZM2616.88 899.729 2616.88 1002.59 2682.68 1002.59 2682.68 1320.21C2682.68 1468.78 2789.81 1514.38 2905.74 1514.38 2989.5 1514.38 3125.25 1483.93 3125.25 1342.58L3125.25 1002.59 3180.74 1002.59 3180.74 899.729 2969.42 899.729 2969.42 1002.59 3018.93 1002.59 3018.93 1316.6C3018.93 1385.55 2975.08 1411.48 2920.71 1411.48 2855.92 1411.48 2828.25 1371.21 2828.25 1311.31L2828.25 1002.59 2876.7 1002.59 2876.7 899.729ZM2147.39 899.729 2147.39 1002.59 2227.11 1002.59 2227.11 1404.31 2147.39 1404.31 2147.39 1507.22 2622.64 1507.22 2622.64 1313.81 2513.29 1313.81 2513.29 1404.31 2372.68 1404.31 2372.68 1002.59 2454.11 1002.59 2454.11 899.729ZM1593.04 899.729 1593.04 1002.59 1653.68 1002.59 1653.68 1404.31 1587.88 1404.31 1587.88 1507.22 2078.71 1507.22 2078.71 1314.01 1972.64 1314.01 1972.64 1404.31 1799.15 1404.31 1799.15 1245.06 1938.95 1245.06 1938.95 1142.21 1799.15 1142.21 1799.15 1002.59 1972.64 1002.59 1972.64 1092.08 2078.71 1092.08 2078.71 899.729ZM967.818 899.729 967.818 1002.59 1033.62 1002.59 1199.93 1507.37 1330.93 1507.37 1491.42 1002.59 1545.14 1002.59 1545.14 899.729 1313.43 899.729 1313.43 1002.59 1375.14 1002.59 1274.48 1310.25 1272.87 1310.25 1179.95 1002.59 1244.08 1002.59 1244.08 899.729ZM674 627 4115 627 4115 1780 674 1780Z" fill-rule="evenodd"/></g></svg>