<svg width="400" height="400" xmlns="http://www.w3.org/2000/svg">
    <g fill-rule="evenodd">
        <path d="M51.22 261.963c-.36.675-.24 24.582.127 25.026.17.205 2.093 1.194 4.275 2.199 2.182 1.004 10.234 4.723 17.893 8.265l40.899 18.907 38.52 17.804 19.744 9.126c7.03 3.248 16.509 7.63 21.067 9.737l64.832 29.961c6.667 3.079 12.238 5.554 12.379 5.499.284-.108.499-29.406.225-30.533-.211-.867-.963-1.413-3.398-2.468l-11.544-5.014c-1.6-.696-3.702-1.609-4.672-2.028-.97-.419-3.35-1.451-5.288-2.294-1.94-.843-4.32-1.874-5.29-2.291-.97-.417-2.793-1.209-4.054-1.76a3251.176 3251.176 0 0 0-13.31-5.781 859.609 859.609 0 0 1-4.142-1.804 710.198 710.198 0 0 0-3.438-1.498c-.63-.271-2.177-.942-3.437-1.492-1.261-.55-3.363-1.461-4.672-2.026-1.31-.564-3.69-1.598-5.29-2.297-1.6-.698-3.98-1.732-5.288-2.296-1.308-.565-3.411-1.477-4.671-2.027-1.145-.5-2.291-.996-3.438-1.491-.63-.271-3.01-1.304-5.288-2.295-6.323-2.75-6.833-2.972-8.727-3.789-.97-.419-2.794-1.212-4.054-1.763a3213.716 3213.716 0 0 0-11.371-4.941c-1.406-.607-4.421-1.914-6.7-2.905-4.727-2.057-4.897-2.131-12.163-5.287l-6.523-2.828c-.63-.271-2.177-.944-3.437-1.495-1.35-.59-2.702-1.177-4.055-1.761-.97-.418-2.794-1.211-4.055-1.764a918.714 918.714 0 0 0-4.671-2.026c-1.56-.67-3.117-1.347-4.672-2.027a549.985 549.985 0 0 0-3.438-1.497c-.63-.27-3.01-1.303-5.288-2.296-7.442-3.244-11-4.788-12.164-5.283-.63-.268-3.01-1.299-5.29-2.292-2.277-.993-4.657-2.026-5.288-2.296-.63-.27-2.177-.943-3.437-1.496-1.261-.552-3.085-1.346-4.055-1.765-1.558-.674-3.116-1.35-4.672-2.029-1.556-.679-3.113-1.355-4.671-2.027-.97-.417-2.794-1.209-4.055-1.76-9.971-4.359-9.71-4.26-9.954-3.802M51.22 229.173c-.12.224-.181 3.956-.181 10.891 0 11.748-.067 11.105 1.213 11.634.35.145 2.304 1 4.34 1.9 3.55 1.571 6.049 2.674 12.78 5.643 4.323 1.903 8.642 3.813 12.958 5.731 1.201.537 2.406 1.066 3.614 1.587.727.311 2.353 1.025 3.614 1.588 1.992.89 7.136 3.161 11.37 5.02 2.799 1.229 5.997 2.641 8.198 3.62 1.26.56 2.966 1.313 3.79 1.672.824.36 2.53 1.113 3.79 1.673 1.26.561 2.927 1.297 3.702 1.637 2.983 1.305 6.054 2.66 7.493 3.305 1.261.562 2.524 1.119 3.79 1.671 1.26.55 3.323 1.46 4.583 2.022 1.26.563 2.927 1.3 3.702 1.64 2.426 1.061 5.932 2.605 7.493 3.299.824.367 2.49 1.103 3.702 1.636l6.082 2.683 6.082 2.683c1.212.534 2.878 1.27 3.702 1.637 1.37.609 3.989 1.763 7.404 3.263a3250.54 3250.54 0 0 1 11.37 5.017c2.325 1.035 5.792 2.566 8.198 3.619 3.972 1.739 7.63 3.355 11.106 4.904 1.212.54 3.949 1.748 6.082 2.684 4.878 2.14 10.772 4.744 13.75 6.074 1.26.563 2.887 1.278 3.615 1.588 1.208.522 2.412 1.052 3.614 1.588 1.992.89 7.136 3.161 11.37 5.02 3.97 1.744 6.06 2.667 7.404 3.269.825.369 2.53 1.121 3.79 1.671 1.26.55 3.324 1.46 4.584 2.023 1.26.562 2.927 1.299 3.702 1.638.776.339 2.164.954 3.085 1.366 3.94 1.762 4.756 2.016 5.034 1.567.065-.105.106-5.242.09-11.415-.016-7.158.042-11.699.162-12.536.24-1.676.339-1.582-3.347-3.143l-13.398-5.681c-1.732-.741-9.658-4.103-15.601-6.618l-8.11-3.432c-1.551-.657-3.891-1.646-5.2-2.197-1.31-.552-3.65-1.547-5.2-2.21-1.552-.663-4.923-2.095-7.493-3.181-2.57-1.085-6.02-2.548-7.668-3.249-1.65-.701-4.227-1.796-5.73-2.432-1.503-.637-4.874-2.067-7.492-3.179a3774.839 3774.839 0 0 0-7.58-3.208c-1.552-.652-4.17-1.763-5.818-2.467-4.99-2.127-9.985-4.243-14.985-6.348-1.551-.652-4.17-1.762-5.817-2.467a5057.103 5057.103 0 0 0-15.25-6.473c-1.6-.677-5.486-2.325-8.637-3.662-3.151-1.337-7.832-3.32-10.401-4.407-2.57-1.086-7.29-3.086-10.49-4.444l-10.312-4.375-7.493-3.174c-1.648-.697-4.821-2.043-7.051-2.991-2.23-.948-5.602-2.377-7.493-3.174-1.89-.798-3.953-1.671-4.583-1.941-1.608-.688-10.55-4.48-16.836-7.14-2.157-.91-4.312-1.827-6.464-2.749-1.391-.605-1.49-.614-1.727-.17M51.22 193.034c-.282.528-.243 23.591.04 24.15.18.351 4.877 2.425 26.398 11.653 107.01 45.885 138.128 59.231 153.107 65.669a8414.665 8414.665 0 0 0 19.304 8.277c1.212.511 6.284 2.688 11.27 4.837 5.444 2.347 9.238 3.888 9.494 3.856l.425-.053-.013-13.526c-.011-10.62-.062-13.605-.238-13.893-.335-.547-1.022-.918-3.838-2.074-3.95-1.621-8.414-3.468-11.9-4.923-1.745-.728-4.482-1.86-6.082-2.514-2.533-1.035-9.592-3.957-30.762-12.73l-15.822-6.556-7.713-3.2c-2.278-.946-5.253-2.173-6.61-2.727-1.358-.554-7.585-3.128-13.84-5.719l-25.12-10.412c-1.94-.804-5.39-2.232-7.67-3.172l-8.725-3.611c-17.188-7.132-36.875-15.28-39.49-16.346a804.254 804.254 0 0 1-5.023-2.077 6522.79 6522.79 0 0 0-17.541-7.269c-2.23-.922-5.443-2.254-7.14-2.96-12.746-5.308-12.27-5.13-12.51-4.68M51.146 157.89c-.172.448-.124 25.746.05 26.203.169.444.14.432 7.687 3.549 4.226 1.745 14.356 5.941 17.1 7.083.873.363 2.023.837 2.557 1.054.94.382 18.57 7.678 28.735 11.892 2.763 1.145 7.563 3.132 10.665 4.414 3.103 1.283 8.656 3.586 12.34 5.119 3.685 1.532 7.374 3.06 8.198 3.396.824.335 5.94 2.451 11.37 4.701 3.907 1.621 7.814 3.238 11.724 4.849 1.018.417 8.594 3.554 16.835 6.972 15.13 6.275 19.299 8.001 21.067 8.721.533.217 2.635 1.085 4.672 1.93 2.036.844 5.249 2.174 7.139 2.955 1.89.782 4.628 1.919 6.082 2.528 1.455.608 3.517 1.461 4.584 1.895 1.066.434 8.682 3.586 16.924 7.004 8.24 3.418 16.095 6.67 17.452 7.226 4.586 1.88 11.984 4.943 12.543 5.192.894.399 1.702.493 2.039.236.314-.239.543-26.249.235-26.747-.186-.302-1.193-.772-4.705-2.196-1.78-.721-6.013-2.458-9.407-3.859-3.393-1.401-9.026-3.72-12.516-5.152-3.491-1.433-8.806-3.618-11.812-4.856l-10.841-4.457c-11.061-4.535-16.701-6.854-18.07-7.428-.776-.325-4.742-1.959-8.814-3.63-4.073-1.672-10.578-4.344-14.456-5.939-3.878-1.596-9.75-4.007-13.046-5.358-3.296-1.352-6.35-2.612-6.787-2.8-.436-.188-3.768-1.562-7.404-3.053-8.451-3.465-16.504-6.773-25.826-10.609a39117.42 39117.42 0 0 0-18.863-7.755l-45.66-18.785c-11.991-4.944-11.597-4.801-11.791-4.295M51.25 122.741c-.28.279-.308 26.956-.03 27.476.264.493-.108.337 15.596 6.564 7.95 3.153 18.542 7.359 23.535 9.346l17.364 6.91c4.558 1.813 13.244 5.264 19.304 7.668 14.575 5.782 28.069 11.147 30.146 11.986.92.372 9.17 3.651 18.334 7.286 9.162 3.635 21.974 8.727 28.47 11.314 6.497 2.588 18.872 7.506 27.5 10.93 8.63 3.423 20.808 8.263 27.062 10.754 11.34 4.518 12.363 4.885 12.592 4.515.067-.108.12-6.829.12-14.937-.002-16.096.054-15.2-.968-15.508-.351-.106-7.323-2.784-16.945-6.509l-9.696-3.752-13.221-5.114-68.224-26.39c-3.588-1.387-10.45-4.043-15.25-5.903-4.8-1.859-12.692-4.914-17.54-6.788-4.848-1.873-12.503-4.833-17.012-6.577-4.508-1.743-12.243-4.73-17.188-6.637-3.5-1.345-6.996-2.7-10.49-4.062-.823-.327-4.314-1.682-7.756-3.01l-9.431-3.643c-1.746-.675-5.435-2.098-8.198-3.161a558.352 558.352 0 0 1-6.29-2.451c-1.434-.587-1.493-.597-1.784-.307M51.233 87.162c-.287.346-.194 26.977.096 27.266.209.21.95.501 16.193 6.367 5.04 1.941 9.643 3.715 10.224 3.943.582.228 2.605 1.007 4.496 1.731 4.15 1.59 15.537 5.977 17.012 6.554.58.228 2.604 1.007 4.495 1.732 1.89.724 9.546 3.671 17.012 6.549l24.945 9.611c6.254 2.407 17.479 6.73 24.945 9.606l35.258 13.578c5.432 2.085 50.382 19.405 58.88 22.688 4.994 1.929 5.58 2.06 6.106 1.368.329-.435.548-30.952.228-31.787-.103-.269-2.972-1.235-4.29-1.445-.425-.068-1.258-.353-1.85-.633-.591-.279-1.194-.508-1.34-.508-.145 0-.74-.229-1.322-.508-1.51-.725-2.835-1.249-4.066-1.608-.588-.172-1.403-.482-1.81-.69-.408-.208-1.155-.457-1.661-.553a7.468 7.468 0 0 1-1.728-.597c-.445-.232-1.261-.506-1.813-.608-.553-.102-1.341-.378-1.751-.612a8.982 8.982 0 0 0-1.45-.649c-.388-.123-.864-.325-1.058-.449-.194-.124-.878-.347-1.52-.494-.64-.147-1.434-.427-1.763-.621-.33-.194-1.073-.466-1.654-.605a12.519 12.519 0 0 1-2.027-.712c-.533-.252-1.121-.459-1.308-.46-.186-.001-.86-.229-1.498-.506-2.154-.937-3.094-1.296-4.421-1.687-.728-.214-1.521-.497-1.763-.629-.243-.132-1.036-.416-1.763-.63-.745-.22-1.48-.47-2.204-.751a27.343 27.343 0 0 0-1.675-.616c-.436-.141-1.553-.576-2.482-.968-.93-.392-2.195-.843-2.813-1.003-.618-.161-1.365-.418-1.66-.572-.67-.35-2.86-1.149-4.944-1.803-1.497-.47-2.173-.724-4.495-1.692-.534-.222-1.367-.5-1.851-.617-.485-.118-1.117-.332-1.404-.477-.287-.144-1.2-.499-2.027-.789a565.884 565.884 0 0 1-6.001-2.147c-.63-.23-2.018-.733-3.085-1.119a258.822 258.822 0 0 1-3.438-1.27 62.696 62.696 0 0 0-3.085-1.065 42.867 42.867 0 0 1-2.644-.923c-2.37-.961-3.965-1.54-4.237-1.54-.158 0-.816-.229-1.463-.51-.646-.281-1.453-.568-1.792-.639a6.102 6.102 0 0 1-1.265-.456c-.357-.18-1.264-.497-2.016-.703-.751-.206-1.65-.518-1.996-.693-1.051-.532-3.305-1.382-4.456-1.68-.598-.155-1.371-.426-1.717-.603a8.65 8.65 0 0 0-1.42-.529c-.436-.115-.967-.321-1.18-.457-.213-.137-1.006-.417-1.763-.623-.757-.206-1.574-.48-1.816-.61-.751-.402-3.57-1.454-4.496-1.678-.484-.118-1.117-.332-1.405-.477-.498-.25-1.94-.77-4.5-1.623a25.154 25.154 0 0 1-1.937-.738c-.434-.196-1.386-.537-2.115-.757a33.804 33.804 0 0 1-2.207-.754c-.583-.23-1.17-.45-1.762-.658a132.65 132.65 0 0 1-4.454-1.661c-.51-.203-1.066-.369-1.236-.369-.17 0-.626-.171-1.012-.38s-1.14-.521-1.672-.694c-.927-.301-3.068-1.065-6.7-2.392-.92-.337-2.031-.732-2.467-.879a43.647 43.647 0 0 1-1.5-.537l-2.29-.883c-.969-.37-1.948-.71-2.937-1.022-.742-.226-1.531-.508-1.752-.626-.221-.119-.962-.396-1.647-.617-1.49-.482-3.976-1.388-6.27-2.285a77.416 77.416 0 0 0-2.908-1.071c-1.86-.636-3.71-1.294-5.553-1.976a75.181 75.181 0 0 0-1.763-.628 235.285 235.285 0 0 1-5.906-2.128c-.678-.259-1.868-.7-2.644-.979-2.264-.815-5.334-1.926-7.14-2.584a77.811 77.811 0 0 0-3.016-1.025c-.737-.228-1.57-.532-1.851-.676-.28-.144-1.025-.425-1.655-.624a76.437 76.437 0 0 1-5.465-2.003 64.025 64.025 0 0 0-3.262-1.207 205.72 205.72 0 0 1-3.437-1.203c-.824-.3-2.252-.817-3.173-1.15-.922-.332-2.31-.84-3.085-1.129-5.458-2.033-5.604-2.076-5.888-1.734M51.25 51.344c-.39.39-.296 26.626.097 27.071.17.192 1.538.793 3.04 1.336l10.755 3.885c4.41 1.593 9.925 3.587 12.252 4.429 2.327.842 5.659 2.046 7.404 2.675 1.745.63 5.474 1.979 8.285 2.999 2.812 1.02 6.184 2.238 7.493 2.706 1.309.469 4.482 1.616 7.05 2.55 2.57.934 6.736 2.44 9.257 3.346l9.784 3.52c2.031.727 4.059 1.464 6.082 2.213a752.59 752.59 0 0 0 7.05 2.562c6.996 2.517 12.09 4.357 20.98 7.576 6.095 2.207 10.934 3.957 17.805 6.437 1.939.7 7.968 2.881 13.398 4.845l23.975 8.666c5.263 1.899 7.427 2.684 9.872 3.578.776.284 3.314 1.2 5.64 2.036 2.328.837 5.62 2.025 7.317 2.641 10.37 3.766 13.64 4.948 14.897 5.387.776.27 2.52.901 3.878 1.4 11.656 4.292 12.169 4.444 13.107 3.872l.59-.36-.065-12.988-.066-12.989-1.23-.193c-.676-.107-2.34-.613-3.698-1.126-2.563-.967-13.216-4.87-17.364-6.361a896.25 896.25 0 0 1-4.848-1.764c-1.357-.5-3.54-1.293-4.848-1.763a575.24 575.24 0 0 1-4.583-1.668 2973.256 2973.256 0 0 0-12.781-4.677 4187.925 4187.925 0 0 1-16.572-6.048c-2.607-.963-7.887-2.888-13.398-4.884-2.469-.896-4.937-1.795-7.404-2.696-2.521-.922-7.518-2.745-11.106-4.053l-16.042-5.852-13.046-4.761-10.136-3.701-10.401-3.79c-2.085-.755-6.33-2.303-9.432-3.438-3.103-1.135-6.91-2.524-8.462-3.087-2.956-1.073-10.06-3.664-19.568-7.138a7681.66 7681.66 0 0 0-19.568-7.133c-1.551-.56-4.01-1.46-5.465-1.998-3.276-1.212-8.866-3.226-9.351-3.368-.2-.059-.457-.01-.573.106M61.567 28.708c-3.717 3.13-6.602 6.72-8.355 10.4-1.64 3.44-1.906 3.103 4.26 5.375l8.727 3.214c2.279.84 5.174 1.912 6.435 2.382 1.26.47 3.839 1.421 5.729 2.113 1.89.692 4.152 1.523 5.025 1.848.872.324 5.354 1.977 9.96 3.673a9688.45 9688.45 0 0 1 21.683 8.002c4.875 1.807 6.994 2.587 12.34 4.543 1.407.514 7.753 2.856 14.104 5.203l14.103 5.202c1.406.515 3.984 1.464 5.729 2.111 5.082 1.882 9.678 3.576 12.429 4.582 1.406.514 4.738 1.743 7.404 2.73 2.666.987 6.355 2.349 8.197 3.026 1.843.677 4.064 1.499 4.936 1.827.873.328 2.777 1.032 4.23 1.565 2.41.883 6.448 2.37 15.69 5.781 1.843.68 4.5 1.66 5.907 2.177l5.024 1.852c1.357.501 3.618 1.333 5.024 1.848 1.406.516 3.945 1.451 5.642 2.079 1.696.628 5.068 1.873 7.492 2.766 2.424.893 7.263 2.68 10.753 3.971s8.196 3.029 10.455 3.862c2.26.833 4.332 1.63 4.604 1.771.707.365 1.095-.118 1.692-2.109.742-2.47 1.898-5.713 3.708-10.401.603-1.56 2.307-5.187 2.596-5.525.406-.474.487-.685.376-.975-.123-.32-.1-.311-8.204-3.173-3.43-1.211-9.41-3.326-13.287-4.701l-13.971-4.95-13.838-4.902c-10.65-3.772-20.045-7.102-29.133-10.327l-23.887-8.46c-4.577-1.616-12.266-4.339-20.89-7.4l-12.43-4.408c-10.91-3.866-18.49-6.554-22.74-8.066-2.79-.991-5.581-1.979-8.374-2.962-2.734-.963-5.466-1.93-8.197-2.9-2.085-.744-5.218-1.853-6.963-2.467-1.746-.613-6.902-2.438-11.46-4.054-23.558-8.355-20.773-7.598-22.525-6.123M85.767 15.77c-1.341.415-9.113 3.498-11.37 4.51-2.68 1.201-3.8 2.21-3.313 2.982.204.325.73.522 8.69 3.251 3.248 1.114 9.039 3.11 12.869 4.434 3.83 1.325 11.763 4.065 17.629 6.09l20.185 6.965c5.236 1.807 12.93 4.46 17.1 5.895 4.169 1.435 10.952 3.774 15.073 5.198 4.12 1.424 13.243 4.574 20.273 7 7.029 2.424 16.906 5.836 21.948 7.58 5.042 1.745 11.904 4.11 15.249 5.256 3.345 1.146 7.946 2.733 10.225 3.526 2.278.793 6.879 2.379 10.224 3.525a6421.08 6421.08 0 0 1 15.866 5.468c22.825 7.899 25.492 8.813 25.719 8.813.687 0 6.637-5.124 7.526-6.481.148-.226.72-.699 1.273-1.052 3.812-2.43 3.87-2.327-2.521-4.514-2.424-.829-9.405-3.226-15.514-5.326l-18.246-6.252c-7.074-2.412-17.406-5.958-41.075-14.096-6.74-2.317-13.8-4.74-15.69-5.386-1.89-.646-7.126-2.442-11.635-3.992-4.508-1.55-10.141-3.485-12.516-4.299-2.376-.814-10.31-3.538-17.63-6.053-7.32-2.515-16.324-5.604-20.008-6.864-3.684-1.26-10.626-3.643-15.425-5.293-4.8-1.65-11.384-3.91-14.632-5.02l-11.812-4.057c-6.92-2.384-6.735-2.345-8.462-1.809"/>
        <path d="M103.308 11.687c-6.011.16-8.021.525-8.021 1.455 0 .473.747.75 13.31 4.913 23.542 7.802 63.627 21.092 90.436 29.983l52.27 17.332 38.43 12.742c11.836 3.925 13.096 4.307 14.545 4.414.872.064 1.904.242 2.292.396.398.158 1.244.283 1.944.287.87.015 1.73.162 2.556.436 1.934.628 4.753 1.335 5.323 1.335 2.105 0 9.374 3.252 12.742 5.699 6.02 4.378 11.472 13.26 12.782 20.833.1.581.309 1.739.462 2.572.839 4.565-.77 14.173-3.354 20.021-.35.792-.635 1.5-.635 1.575 0 .49-2.95 5.54-4.211 7.211-6.165 8.165-16.281 12.662-25.176 11.19-20.208-3.344-29.511-22.445-20.327-41.734 4.086-8.579 12.563-13.974 20.298-12.917 15.104 2.064 22.165 14.106 16.698 28.477-3.174 8.341-10.093 12.493-17.34 10.403-8.981-2.59-12.303-9.846-8.451-18.462 1.988-4.448 5.312-5.984 9.728-4.497 2.789.94 3.685 2.171 3.532 4.856-.155 2.705-.82 3.379-3.341 3.38-3.85.001-4.936 4.844-1.464 6.525 2.947 1.426 7.085-.276 9.408-3.87 2.238-3.464 2.182-10.201-.111-13.251-3.048-4.055-8.053-5.679-14.097-4.575-7.198 1.316-12.586 13.289-10.467 23.262 1.376 6.473 8.345 12.633 15.383 13.595.807.11 1.937.273 2.51.36.635.097 1.502.095 2.205-.005.638-.09 1.873-.258 2.746-.373 14.702-1.94 23.384-26.761 14.26-40.772-9.397-14.434-30.355-15.926-41.188-2.932-4.873 5.846-7.654 11.801-8.854 18.96-2.545 15.191 3.464 28.703 16.085 36.164 10.089 5.965 24.074 5.806 33.359-.381 2.556-1.703 6.538-5.223 7.914-6.995 6.1-7.859 8.086-11.655 10.147-19.399 1.253-4.707 1.782-15.029.988-19.27l-.466-2.468c-1.508-7.958-6.294-15.99-12.646-21.222-2.783-2.292-5.018-3.921-5.76-4.199a9.79 9.79 0 0 1-1.411-.677 7.502 7.502 0 0 0-1.308-.606 7.69 7.69 0 0 1-1.234-.546c-.298-.175-.96-.373-1.47-.44-.528-.069-1.25-.326-1.677-.597-.412-.261-1.024-.53-1.36-.597-.336-.068-.901-.324-1.256-.57-.488-.338-.988-.481-2.06-.589-.975-.099-1.618-.268-2.066-.545-.357-.22-1.17-.51-1.806-.644-.636-.133-1.422-.406-1.746-.606-.326-.2-1.158-.44-1.866-.537-.703-.096-1.684-.364-2.18-.597a10.416 10.416 0 0 0-1.763-.615c-.473-.105-1.138-.355-1.478-.554-.61-.359-2.11-.908-5.2-1.902-2.116-.68 5.179 1.75-72.103-24.009-38.008-12.668-78.188-26.085-89.29-29.815l-20.185-6.783-4.936.02c-2.715.01-7.237.08-10.05.155"/>
        <path d="M91.277 21.459c.317.039.793.038 1.058-.002.264-.04.005-.072-.577-.071-.581.001-.798.034-.481.073m3.258-.006c.17.044.447.044.617 0 .17-.045.031-.081-.308-.081-.34 0-.479.036-.309.081m4.319.002c.218.042.575.042.793 0 .219-.042.04-.076-.396-.076-.437 0-.615.034-.397.076m-14.012.179c.268.04.664.039.881-.003.217-.041-.002-.075-.487-.073-.485.001-.662.035-.394.076m214.805 28.387c.994.032 2.621.032 3.614 0 .994-.031.181-.057-1.807-.057-1.987 0-2.8.026-1.807.057m41.472 20.407c1.21 1.211 2.238 2.203 2.287 2.203.048 0-.901-.992-2.11-2.203-1.209-1.212-2.238-2.204-2.287-2.204-.048 0 .901.992 2.11 2.204m27.149 10.896c0 .031.258.289.573.573l.573.518-.518-.573c-.483-.534-.628-.654-.628-.518m-96.969 21.585-.607.661.661-.608c.615-.565.742-.714.608-.714-.03 0-.327.297-.662.661m3.26 6.611-.518.573.573-.518c.534-.483.654-.628.518-.628-.03 0-.288.257-.573.573m2.92 6.566c-.428.437-.739.794-.69.794.048 0 .438-.357.866-.794.429-.436.739-.793.691-.793-.049 0-.439.357-.867.793m55.958 11.988c0 2.036.026 2.845.057 1.797a72.514 72.514 0 0 0 0-3.702c-.031-.988-.057-.131-.057 1.905m-7.234-.529c.001 1.261.029 1.753.063 1.095.034-.659.034-1.69-.001-2.292-.034-.602-.062-.063-.062 1.197m31.538 0c.001.485.036.662.076.394.041-.268.04-.664-.002-.881-.042-.217-.075.002-.074.487m-53.94 2.116c.001.581.034.798.073.481a4.716 4.716 0 0 0-.002-1.057c-.04-.265-.072-.006-.071.576m82.144 1.322c0 .436.034.615.076.396a2.511 2.511 0 0 0 0-.793c-.042-.218-.076-.04-.076.397m-92.732 2.418c.267.04.703.04.969 0 .267-.041.049-.074-.484-.074-.534 0-.752.033-.485.074m-23.775 4.369c.001 1.26.029 1.753.063 1.094.034-.658.033-1.689-.001-2.291-.034-.602-.062-.064-.062 1.197m24.57 3.386c.22.042.537.041.705-.004.169-.044-.01-.078-.398-.076-.388.002-.526.038-.307.08m-13.708 7.863c0 .031.258.289.573.573l.573.518-.518-.573c-.483-.534-.628-.654-.628-.518m28.735 2.149c-.428.436-.739.793-.691.793.049 0 .439-.357.867-.793.428-.436.739-.793.691-.793-.049 0-.439.357-.867.793m10.831 10.709-.518.573.573-.517c.534-.483.654-.628.517-.628-.03 0-.288.257-.572.572m-45.384 1.279c.329.339.638.617.686.617.049 0-.181-.278-.51-.617-.328-.34-.637-.617-.686-.617-.048 0 .181.277.51.617m43.621.308-.518.573.573-.518c.534-.482.654-.628.518-.628-.031 0-.289.258-.573.573m-17.748 8.014c.219.042.536.04.705-.004.168-.044-.011-.078-.399-.077-.388.002-.526.039-.306.081m-4.858.182c.65.034 1.761.034 2.468 0 .707-.033.175-.061-1.182-.061-1.358 0-1.936.027-1.286.061m-39.83 5.687c0 .436.035.615.077.396a2.511 2.511 0 0 0 0-.793c-.042-.218-.077-.039-.077.397m75.838 5.861-.875.926.926-.875c.509-.481.925-.897.925-.925 0-.132-.163.014-.976.874m-50.101 9.955c.268.041.665.04.881-.002.217-.042-.002-.075-.487-.074-.485.001-.662.036-.394.076m-3.892.938c-.446.416-.497 1.013-.126 1.502.234.31.239.289.051-.226-.183-.5-.161-.631.187-1.101.46-.624.427-.676-.112-.175m94.226 10.56c.876 1.025.899 1.811.08 2.743-.396.451-.367.439.196-.079.9-.826.899-1.476 0-2.421-.363-.381-.488-.491-.276-.243m-24.933 8.77c.169.045.447.045.617 0 .169-.044.031-.08-.309-.08-.339 0-.478.036-.308.08m-25.648.532c.219.043.536.041.705-.003.168-.044-.011-.079-.399-.077-.388.002-.526.038-.306.08m2.466.176c.218.042.575.042.793 0 .218-.042.04-.076-.397-.076-.436 0-.614.034-.396.076m7.933.008c1.672.029 4.409.029 6.082 0 1.672-.029.304-.053-3.041-.053-3.345 0-4.714.024-3.041.053" fill="#7c7c7c"/>
    </g>
</svg>
