<svg xmlns="http://www.w3.org/2000/svg" xmlns:xlink="http://www.w3.org/1999/xlink" version="1.1"
    x="0px" y="0px" viewBox="0 0 100 100" enable-background="new 0 0 100 100" xml:space="preserve"><g>
        <g>
            <path d="M10.684,17.923c-2.167-0.382-4.146-0.052-4.398,0.734s1.313,1.741,3.479,2.123l75.872,13.379    c2.167,0.382,4.146,0.052,4.399-0.734s-1.313-1.741-3.48-2.123L10.684,17.923z"/></g><g><path d="M10.684,23.342c-2.167-0.382-4.146-0.052-4.398,0.734c-0.253,0.785,1.313,1.74,3.479,2.122l75.872,13.379    c2.167,0.382,4.146,0.052,4.399-0.734s-1.313-1.741-3.48-2.123L10.684,23.342z"/></g><g><path d="M10.684,28.76c-2.167-0.382-4.146-0.052-4.398,0.734s1.313,1.741,3.479,2.123l75.872,13.379    c2.167,0.382,4.146,0.052,4.399-0.734s-1.313-1.741-3.48-2.123L10.684,28.76z"/></g><g><path d="M10.684,34.179c-2.167-0.382-4.146-0.052-4.398,0.733c-0.253,0.786,1.313,1.741,3.479,2.123l75.872,13.379    c2.167,0.382,4.146,0.052,4.399-0.734s-1.313-1.741-3.48-2.123L10.684,34.179z"/></g>
            <g><path d="M10.684,39.597c-2.167-0.382-4.146-0.052-4.398,0.734s1.313,1.741,3.479,2.123l75.872,13.378    c2.167,0.382,4.146,0.052,4.399-0.734c0.252-0.785-1.313-1.74-3.48-2.122L10.684,39.597z"/></g><g><path d="M10.684,45.015c-2.167-0.382-4.146-0.052-4.398,0.734s1.313,1.741,3.479,2.123l75.872,13.379    c2.167,0.382,4.146,0.052,4.399-0.734s-1.313-1.741-3.48-2.123L10.684,45.015z"/></g><g><path d="M10.684,50.434c-2.167-0.382-4.146-0.052-4.398,0.734c-0.253,0.785,1.313,1.74,3.479,2.122l75.872,13.379    c2.167,0.382,4.146,0.052,4.399-0.734s-1.313-1.741-3.48-2.123L10.684,50.434z"/></g><g><path d="M10.684,61.271c-2.167-0.382-4.146-0.052-4.398,0.733c-0.253,0.786,1.313,1.741,3.479,2.123l75.872,13.379    c2.167,0.382,4.146,0.052,4.399-0.734s-1.313-1.741-3.48-2.123L10.684,61.271z"/></g><g><path d="M10.684,55.852C8.518,55.47,6.539,55.8,6.286,56.586s1.313,1.741,3.479,2.123l75.872,13.379    c2.167,0.382,4.146,0.052,4.399-0.734s-1.313-1.741-3.48-2.123L10.684,55.852z"/></g><g><path d="M10.684,66.688c-2.167-0.382-4.146-0.052-4.398,0.734s1.313,1.741,3.479,2.123l75.872,13.378    c2.167,0.382,4.146,0.052,4.399-0.734c0.252-0.785-1.313-1.74-3.48-2.122L10.684,66.688z"/></g><g><path d="M10.684,72.106c-2.167-0.382-4.146-0.052-4.398,0.733c-0.253,0.786,1.313,1.741,3.479,2.123l75.872,13.38    c2.167,0.382,4.146,0.052,4.399-0.734s-1.313-1.741-3.48-2.123L10.684,72.106z"/></g><g><path d="M93.476,84.375c0,2.2-0.107,3.981-0.238,3.958C93.107,88.31,93,86.491,93,84.291V33.677c0-2.2,0.107-3.981,0.237-3.958    c0.131,0.022,0.238,1.841,0.238,4.041V84.375z"/></g><g><path d="M94.326,87.695c0,1.256-0.49,2.197-1.088,2.092s-1.088-1.22-1.088-2.477c0-1.256,0.49-2.197,1.088-2.092    S94.326,86.438,94.326,87.695z"/></g><g><path d="M94.875,28.973c0-1.012-1.772-2.152-3.939-2.534L8.815,11.958c-2.167-0.382-3.939,0.134-3.939,1.146    s1.772,2.151,3.939,2.533l82.121,14.48C93.103,30.499,94.875,29.984,94.875,28.973z"/></g></g></svg>